<svg id="visual" viewBox="0 0 900 600" width="900" height="600" xmlns="http://www.w3.org/2000/svg" xmlns:xlink="http://www.w3.org/1999/xlink" version="1.1"><rect x="0" y="0" width="900" height="600" fill="#F7F7F7"></rect><g fill="#dff1ec"><circle r="27" cx="597" cy="455"></circle><circle r="2" cx="608" cy="240"></circle><circle r="4" cx="69" cy="367"></circle><circle r="19" cx="128" cy="560"></circle><circle r="3" cx="781" cy="371"></circle><circle r="18" cx="391" cy="144"></circle><circle r="1" cx="646" cy="415"></circle><circle r="3" cx="758" cy="554"></circle><circle r="5" cx="846" cy="387"></circle><circle r="1" cx="559" cy="499"></circle><circle r="3" cx="156" cy="31"></circle><circle r="25" cx="197" cy="343"></circle><circle r="2" cx="267" cy="119"></circle><circle r="25" cx="258" cy="426"></circle><circle r="4" cx="605" cy="562"></circle><circle r="23" cx="377" cy="269"></circle><circle r="1" cx="479" cy="53"></circle><circle r="12" cx="186" cy="497"></circle><circle r="8" cx="568" cy="290"></circle><circle r="19" cx="295" cy="339"></circle><circle r="18" cx="595" cy="379"></circle><circle r="1" cx="41" cy="302"></circle><circle r="12" cx="826" cy="137"></circle><circle r="9" cx="441" cy="502"></circle><circle r="9" cx="509" cy="137"></circle><circle r="23" cx="399" cy="334"></circle><circle r="3" cx="485" cy="558"></circle><circle r="25" cx="534" cy="43"></circle><circle r="9" cx="366" cy="507"></circle><circle r="24" cx="743" cy="258"></circle><circle r="16" cx="833" cy="215"></circle><circle r="16" cx="539" cy="201"></circle><circle r="3" cx="161" cy="279"></circle><circle r="20" cx="639" cy="158"></circle><circle r="13" cx="123" cy="154"></circle><circle r="12" cx="361" cy="78"></circle><circle r="21" cx="832" cy="270"></circle><circle r="22" cx="865" cy="333"></circle><circle r="13" cx="318" cy="139"></circle><circle r="25" cx="34" cy="129"></circle><circle r="17" cx="692" cy="533"></circle><circle r="6" cx="351" cy="439"></circle><circle r="15" cx="658" cy="70"></circle><circle r="23" cx="734" cy="46"></circle><circle r="7" cx="413" cy="229"></circle><circle r="14" cx="28" cy="567"></circle><circle r="22" cx="667" cy="297"></circle><circle r="15" cx="725" cy="135"></circle><circle r="16" cx="505" cy="481"></circle><circle r="8" cx="667" cy="357"></circle><circle r="8" cx="215" cy="152"></circle><circle r="2" cx="215" cy="275"></circle><circle r="6" cx="77" cy="48"></circle><circle r="9" cx="808" cy="525"></circle><circle r="14" cx="304" cy="573"></circle><circle r="20" cx="255" cy="496"></circle><circle r="18" cx="63" cy="493"></circle><circle r="17" cx="873" cy="464"></circle><circle r="23" cx="309" cy="391"></circle><circle r="17" cx="146" cy="443"></circle><circle r="10" cx="270" cy="262"></circle><circle r="11" cx="62" cy="252"></circle><circle r="17" cx="474" cy="353"></circle><circle r="14" cx="750" cy="437"></circle><circle r="20" cx="391" cy="563"></circle><circle r="19" cx="305" cy="34"></circle><circle r="22" cx="851" cy="75"></circle><circle r="7" cx="286" cy="201"></circle><circle r="1" cx="409" cy="409"></circle><circle r="11" cx="715" cy="391"></circle><circle r="6" cx="480" cy="235"></circle><circle r="16" cx="105" cy="409"></circle><circle r="18" cx="233" cy="224"></circle><circle r="2" cx="514" cy="279"></circle><circle r="17" cx="818" cy="456"></circle><circle r="3" cx="179" cy="199"></circle><circle r="2" cx="694" cy="235"></circle><circle r="11" cx="639" cy="492"></circle><circle r="17" cx="763" cy="315"></circle><circle r="10" cx="800" cy="62"></circle><circle r="19" cx="110" cy="313"></circle><circle r="4" cx="120" cy="97"></circle><circle r="21" cx="452" cy="292"></circle><circle r="19" cx="868" cy="548"></circle><circle r="1" cx="537" cy="396"></circle><circle r="20" cx="315" cy="491"></circle><circle r="11" cx="192" cy="408"></circle><circle r="2" cx="474" cy="427"></circle><circle r="14" cx="250" cy="56"></circle><circle r="9" cx="571" cy="93"></circle><circle r="11" cx="449" cy="166"></circle><circle r="10" cx="193" cy="84"></circle><circle r="20" cx="226" cy="557"></circle><circle r="7" cx="141" cy="361"></circle><circle r="22" cx="612" cy="320"></circle><circle r="10" cx="340" cy="209"></circle><circle r="4" cx="36" cy="194"></circle><circle r="7" cx="27" cy="69"></circle><circle r="11" cx="610" cy="44"></circle><circle r="14" cx="585" cy="159"></circle><circle r="15" cx="753" cy="190"></circle><circle r="6" cx="446" cy="96"></circle><circle r="23" cx="549" cy="556"></circle><circle r="6" cx="108" cy="207"></circle><circle r="12" cx="56" cy="437"></circle><circle r="2" cx="408" cy="37"></circle><circle r="20" cx="712" cy="475"></circle><circle r="2" cx="330" cy="294"></circle><circle r="15" cx="776" cy="115"></circle><circle r="11" cx="867" cy="173"></circle><circle r="5" cx="249" cy="371"></circle><circle r="13" cx="526" cy="332"></circle><circle r="18" cx="399" cy="464"></circle><circle r="25" cx="129" cy="506"></circle></g></svg>