<svg id="visual" viewBox="0 0 960 100" width="960" height="100" xmlns="http://www.w3.org/2000/svg" xmlns:xlink="http://www.w3.org/1999/xlink" version="1.1"><rect x="0" y="0" width="960" height="100" fill="#F7F7F7"></rect><g fill="#dff1ec"><circle r="12" cx="330" cy="69"></circle><circle r="1" cx="269" cy="13"></circle><circle r="9" cx="436" cy="16"></circle><circle r="0" cx="48" cy="48"></circle><circle r="10" cx="553" cy="13"></circle><circle r="7" cx="376" cy="29"></circle><circle r="1" cx="690" cy="29"></circle><circle r="1" cx="26" cy="83"></circle><circle r="7" cx="826" cy="24"></circle><circle r="1" cx="579" cy="43"></circle><circle r="6" cx="477" cy="64"></circle><circle r="9" cx="366" cy="84"></circle><circle r="8" cx="696" cy="67"></circle><circle r="10" cx="26" cy="54"></circle><circle r="7" cx="538" cy="71"></circle><circle r="5" cx="413" cy="56"></circle><circle r="4" cx="190" cy="35"></circle><circle r="2" cx="71" cy="54"></circle><circle r="9" cx="569" cy="86"></circle><circle r="10" cx="350" cy="51"></circle><circle r="3" cx="294" cy="77"></circle><circle r="2" cx="220" cy="73"></circle><circle r="2" cx="653" cy="50"></circle><circle r="8" cx="934" cy="40"></circle><circle r="9" cx="740" cy="32"></circle><circle r="2" cx="658" cy="24"></circle><circle r="5" cx="840" cy="51"></circle><circle r="3" cx="97" cy="49"></circle><circle r="7" cx="756" cy="12"></circle><circle r="5" cx="749" cy="75"></circle><circle r="1" cx="87" cy="70"></circle><circle r="4" cx="611" cy="29"></circle><circle r="6" cx="446" cy="52"></circle><circle r="2" cx="553" cy="46"></circle><circle r="1" cx="789" cy="74"></circle><circle r="1" cx="930" cy="17"></circle><circle r="8" cx="337" cy="21"></circle><circle r="2" cx="709" cy="44"></circle><circle r="3" cx="131" cy="46"></circle><circle r="3" cx="878" cy="65"></circle><circle r="7" cx="226" cy="26"></circle></g></svg>