<svg id="Laag_1" data-name="Laag 1" xmlns="http://www.w3.org/2000/svg" viewBox="0 0 865.59 431.1"><defs><style>.cls-1{fill:#fff;}</style></defs><g id="Jongen"><path class="cls-1" d="M1074.89,183.07l-3.76,5.57,6.45-.86.45,1.07-3.28,2.6,3.35,1c-1.55,2.84-3.53,5.15-4.1,7.77-1.17,5.44-1.16,11.12-5.37,15.58-1,1-1,3-1.2,4.62-.93,9.39-1.39,18.84-2.75,28.15-1,6.91-3.15,13.66-4.88,20.85,4.91,1,3.79,4,2.87,8-2.31,9.88-5.45,19.76-3.82,30.17,2.54,16.18.94,32.39-.87,48.41-1.64,14.45-5.33,28.66-8.13,43-.14.68-.39,1.8-.78,1.89-3.35.78-2.75,3.52-2.75,5.69,0,5.3,0,10.63.5,15.89,1.77,18.73,2.09,37.37-1.61,55.94-1.9,9.56-7.11,16.36-16.08,20-5.7,2.33-11.71,3.92-17.39,6.3-8.52,3.56-17.57,6.5-25.11,11.6-7.28,4.93-9.16,5.9-14.69-.71-.14-.16-.49-.15-.73-.21a37.11,37.11,0,0,0-8.78,17.49c-.66,3.08-2.37,6.05-6.09,6.06-3.94,0-5.38-3.28-5.53-6.34a75.4,75.4,0,0,1,.69-15.68c1-6.23,3.11-12.27,4.47-18.45,1.68-7.62,1.78-7.82,9.76-7.5.4-3.17,2.06-4.41,5.45-3.67,1.09.24,2.55-1.08,3.8-1.74,2.18-1.15,4.26-2.47,6.5-3.48,3.34-1.52,7-2.49,10.13-4.29,6.72-3.84,13.36-7.59,21.49-7.07a5.33,5.33,0,0,0,1.94-.63c1.23-18.87-.72-35.63-5.11-42.13-3.39,3.24-6.46,6.56-10.29,9.15-9.7,6.54-18.85,13.92-26.4,22.86-11.6,13.73-31.54,9.62-38.32-6.24-1.75-4.09-3.65-8.13-6-13.31-2.27,3.39-3.8,5.66-5.31,7.94-2.26,3.41-5.3,5.23-9.4,4-3.79-1.13-4.36-4.46-4.53-7.81a23,23,0,0,1,6.76-18.07c2.37-2.42,4-4.9,4.39-8.72.84-9.08,12.38-14.75,20.32-10.13,7.59,4.42,15.73,8.5,18.49,18,.15.5.71.88,1.53,1.86l14.45-18.21-4.48-3.08,9.33-3.55c1.21-.46,2.95-.57,3.54-1.45,4-6,8.44-11.77,11.32-18.26,2.64-5.92,2.91-12.86,5.23-19,4.82-12.63.14-23.77-5.78-34-4.81-8.3-10.28-16.3-12.63-25.53-1.82-7.12-1.52-14.77-2.12-22.19a1.9,1.9,0,0,1,.45-1.22c2.33-3.06.48-5.26-1.12-7.91a22.9,22.9,0,0,1-3.21-8.72c-.66-5.18-.41-10.46-.77-15.68-.49-7-1.17-14.08-1.8-21.12a4.2,4.2,0,0,0-.55-2.05c-4.16-5.49-8.42-10.91-12.58-16.4-1.83-2.41-3.5-4.95-5.23-7.43l1.63-1.38q3.33,3.24,6.68,6.46a62.69,62.69,0,0,0-4.81-9.29c-1.47-2.56-.64-5.12,2-5.57,3.78-.67,7.83-.65,10.37,3.45a44.72,44.72,0,0,0,4.36,5.57c5.38,6.19,8,6.44,14.35,1.42,2-1.53,3.72-2.18,5.72.47-11.44,11.51-13.16,24.39-6,38,5.12-1.47,10.06-3.26,15.16-4.26,7-1.37,15.35,3,16.46,8.06a18.16,18.16,0,0,0,1.85,5.11c1.55,2.68,3.91,5,5,7.79a54.92,54.92,0,0,1,3.3,12.17,10.08,10.08,0,0,1-1.3,6.73c-1.76,2.53-2.19,4.53-.74,7.24.88,1.66,1.08,3.67,1.81,5.43a42.37,42.37,0,0,0,2.37,4.25l1.4-.15q3.6-10.78,7.19-21.58c.56-1.67.67-3.92,1.83-4.87,4.39-3.6,5.06-8.65,5.2-13.51.31-10.23,3.6-19.62,6.72-29.15a58.63,58.63,0,0,0,3-14.61c.53-9,2.22-17.52,6.76-25.37.76-1.31,1.75-2.48,3.09-4.34l1.38,3.41,4.33-1.05ZM1005.08,288.2c.29,3,.51,5.2.77,7.88C1010.23,294.22,1010,292.32,1005.08,288.2Z" transform="translate(-261.42 -107.86)"/></g><g id="Uitblinkers"><path class="cls-1" d="M296,252.39l-.18.7,1.92,3.84-.7,1.22-1,.87-.18.7,1.75,2.1.17.7-.7,1.22-1.39.17,1.39,1.75.18,1.57,2.27,1.22-.7,2.62.35,4.37-.87.87v3.14l-1.93,1.75-.52,1.22,1.22,2.27,1.75,1.92-1.57-.18v1.23l.52.52.18,1.22-.53,1.22V292l-1.39,1.4-.18.87-.7.87-.35,1.4.88,1.22-1.4,1.75.52,1.22-.52,1.05.87,1.05-.35,1.22-1.57.87v.87l-1.39,3.67v1.22l-1.58,2.1.53,1.39-1.92,3.67.52.7,1.4.35.17.87L290.4,321l.17.88-.52,1.22.17,1.39.7,1.05-1.05.87-.34.7.34,1.22-1.39,1.05-.35,1.4-.87.7,2.09.7v1.57l-1.22,1.57v3.31l-.7,3.15-1.05.87-.7-.17-.34-.53.87-2.09-1.22.35-.7,1.22.17,2.09,1.75.7.52,1.22-.17,1.58-1.4.52-.52.52.35,2.1-1.05.87.17.87,1.23-.69.87.34.17,1.23-1.57,1.57-.17.7-1.4,1.92-.17.69.52,1.4,1.05,1.05-.7,1.4.17.69-1,1.05,1.57,1.57-.18.7.53,2.1-.18,2.44,1.05,2.27.7-.17,1.92-1.58,2.27-.17,2.09-1.22h-1.39l-.53-.35.18-.7,1.74-.87-.52-1.92,1.22-1.4,1.4,1.05.7.17-1.23-1.57.18-1.4,1.22-.69,1.22-2.1-.52-1.75,1.92-.52,2.27-2.79-1.05-1.75.18-.7,1.57-1.22-.18-.7.53-1.22,1.22-.17.35-1.23-.53-1,.35-.7-.17-1.57,2.27-.35,1.22-1.05-.52-.35-.53.35h-.87l-.52-.52.17-.7,1.75-1.05-.18-.87.53-1.22,1.74-1.58V336l.53-1v-1.22l.87-2.1.17-1.57.7-1.22.7-.35-.17-1.05,1.39-3.84.88-.87.52-1.4-.52-2.09.69-1.4.53-.35v-1.75l-.7-1,.17-1.4,1.4-.17.17-2.8L314,309.13l1.74-6.28-.52-1.58,1.92-2.09.18-3-.53-1.22.35-1.75-.35-4.19,1.22-1,.18-2.1,1-2.62V281.2l-.35-.7,1.74-5.41,1.57-1.92,2.1-1.58,2.62.53,1.22-.18,1.22-.69,1.57-.18.7.35.87,1.05.53.17,1.05,1.57,1,.7.7,2.79-.52,1.4-.88.7.35,1.22-1.22.7-.7,1,1.23.87-.18.87-.52.53.17.7,1.05.87-.18.7,1.23,1.92-.53,2.79.53.87v3.5l.52,1-.52,2.1.52,1.22-.35.52-1.57.35-.17.7h1.39l1.05.7v1.92l-.87,1.05-.35,2.09-.53,1.05h-2.09l-1,.52.18.7.52.35.87-.35.35-.7,1.75-.17,1,1.75-1.74,6.63.35,1.57-1.57.7-.18.7,1.05,3.31-.17.88-1.05.87-.35.7.17.87-1.22.35v.87l.87.35.53-1.39,1.05.69-.18,1.23-1.22.52-.7,1.05-.52,3,.35.52H333l.87,2.09-1.57,3,.35.7v3l-1.22,1.22,1,1.75-.35,1.57.53,1.05-.7,1.22.17.87-.52,1.4,1.22,4-1.22.35-.35.53.53,1-.35,1.57-.7,1.23-.35,2.09,1.05.87.17.7-.35.53-1.39.69-.35.53.35,1.4-.35.69,2.09,1.75L330.38,372v1.4l-1.22,1v.7h2.09l.35.53-3.84.87-1.57,2.62.52.52.53-.52.35-1.22.52-.35,1.4.52v1.4l-1.92,1.22.17,2.27h.87l.7-1.75.87-.69h.88l.52.52-.35,1.57-1.22.7-.17,2.09.87,1.05V387l-.53.34-1-.69-.7.87-1.75.52-.52.53V390l-2.1.35-1,.7.35.7.69.35,2.8-.87.17,1.39-1.4.87-1.39,1.75-.7.18-4.54-.53-1-.7.88-1.39-.53-.35-.87.87-1.75-1.75.53-1.22-2.62-1.05.17-2.26-.87-.88v-.87l-.52-1.4.52-1-1.22-.88.52-2.44-.35-.53.7-1-.52-1.23v-4.53l-.7-1.05,1-4.37-.35-1.22.52-1.92.53-.35v-.87l.52-1.4-1.4-.35.53-3.49-.35-2.44.87-.18.35-.52-.18-1.4-.69-.35.52-1.57-.7-1.57.35-.52-.35-1.92.87-.88.53-1.39V343l-.7-1.4-.52-.35.87-1.39v-.7l-1.05-.53-.52.35-2.1.18-.52.35.87,1.39-.35,1.4-1.57,1.22v1.23l-1.22,3.49v3l-.52,1.39L304,354l.17,1.05-.52,1-.88,4.37-1.92.87-1,1.92-1.05.7-.35,1.57-2.27,3.32-1.22.52.52,1.57-1.74.88V373l-2.45,1.22-.7,1.05v1.22l-3.31,1.75-.7-.53-.7,1.22-4.19.35-2.27-1.22-2.44-.17-1.23-.7-1.39.35-.7-.18L272.42,375l-1.57-.53-2.8-3.14.7-1.57-1.4.7L266,369v-.7l.52-1-1.22-.53-1.05-3,.35-.53-.7-1.05-.35-1.39.18-1.75-1.05-1.22.35-.35,1.22.17-.17-.87-1.23-.7.53-1.92-1.4-2.27.53-1.74,1-.88-1.57-1.39.18-1.92-.7-1.4v-2.09l.52-1.23v-4.19l.35-1,1.22-.7-1.22-1.05.35-.7,1.05-.7-.35-.52-.87-.17-.35-.53,1.57-1.4-.35-.69.52-2.45-.35-.52-1-.53,1.22-5.06.52-1.05-.7-1.92.18-.52,1.39-.7.35-1.74v-2.8l.88-.87-.88-1.4.88-2.09-.18-3.32.87-3.49-.34-3,1.22-.7-.7-1.74.7-1.4-.18-.87.53-1.75-.53-2.62,1.92-.7v-.87l-.87-1.74v-1.4l1.75-3.49.35-3,.52-.52.87-3.5-.52-1.39,1-2.8-.18-.87,1.75-2.44.35-2.62.52-1.22v-2.27l1.4-1.58.35-1.92-.7-1.39,1.05-.88v-1.57l1.22-2.27,2.09-.52,2.1-2.27,2.27-.52h3.31l2.8,2.09ZM264,378.61l.35.35-.53.35Zm2.27-13.44-.18-.7-.87-1,.17.69Zm3.84,2.45h.52l.35-.35-.52-.18Zm.52,4.71.35.52.35-.52Zm1.05-1.75h.7l.17-.69-.35-.35Zm2.79-8.38.87-.17-.52-.35Zm.87-44v.7h.7l1.23-1.23-1.23-.17Zm.18-12.57.7.17h.87l1.22-.87.18-.7-1.57.18-1.23.52Zm.17,65.12.35.35,1.23-.7v-.87l-1.4.35Zm.7-47,.35.87.53-1.05Zm3-15.72h.52v-1Zm.17-13.09h.53l.17-1.4-.7-.35Zm.18,46.09.7-.35.17-.87-.52.35Zm.17-12.22.35.52.88-.17-.35-.53Zm1.4-11.35.52.7h.53v-.87l-.7-.35Zm2.1-34.57-.18-.7h-.7l.18.7Zm-.18,41.9.18-.87-.35-.17-.18.52Zm0-44.52h.35l-.35-.35Zm1.4,3.15.52-.53-.52-.17Zm.7,10.12h.34v-.35h-.34Zm.34,34.74v.7l1.23.35v-1.05Zm1.93-4.36-.35-.35-.7-.17V324l.52.52Zm.52-59.53.52.17.53-.17-.18-.53-.52-.17Zm1.22,71.23.52.35-.34.17Zm1.92-31.25.18.35h.69l.35-.7-.35-.35Zm2.62-51.16.87-.17-.52-.18Zm3,116.8h.52v.87h-.52Zm.7-7.68-.35-.7-.18.52Zm.17-79.79.53.18-.18.35ZM311,334.1v.69l.35.35.87-.52-.52-.7Zm1.22,3.66h.88l.69-.35.18-.7-.87-.17-1.23.52Zm5.07,51.16v-.53l-.88-.17v.7Zm9.77-49.06.53.17h1.92l-.18-.87-.52-.35-1.4.35Zm0,25.66.18.52h1.22l-.18-.52Zm.18-15,.69.17h.7l1.05-.7-.17-.52h-1.58Zm1.74-22.7-.17-.52-.35-.53h-.87l-.18.53.87.7Zm-1.22,32.12.17.35.88.18.52-.7-.17-.52h-1.23Zm.35-49.58h.7l.52-.35.18-.87-1.23.52Zm0,34.4.52.34.35.53h.88l.17-.7-1.22-.52Zm1.75,7.85.52-.35-.87-.17Zm1.74-62.15H332v-.52h-.35Zm0,21.82.18.53,1.57.69.35-1.39-1.05-.53Zm2.45-21.12v-.7l-.7-.18-.18.53.35.52Z" transform="translate(-261.42 -107.86)"/><path class="cls-1" d="M371.23,318l-.17-.69.52-.18.53.52.17,1.4-.87,1.4-1.57-.87.17.69,1.75,1.4v2.62l-1.57,2.09.17.7,1.22.88-1.39,3.31-1.57.18,1,1-.35,1.92-1,1.23,1.22.7-1.22,1.57-.53,1.22-2.27,2.62,1.4,1.74-1.4,1.4-.87-.17-1.75,2.09v.52l.53.35,1.22-.87.87-.17.18.69L363.73,350l.17.88,1.4.69.35.7-.18.7-1.57.18-.7.52-.52,3,1.92-.7.7.35-.53,1.22-1.22.87-1.92,2.1-.7-.35-.52.17-.7,1.4h.7l1-.87.7.17.34.7v1.22l-.52,1.22,1.57.18.35.52-.35,1.4-1.05.52L362,368l1.4-.53.17.53-.7,1,.18.7-.35,1.75,1.92,2.62L362.68,376l.52.87.7-.35.7-1,.7-.35v-.87l3-.52,2.61-1.23.53-1.39,2.79-2.62.7-1.22.7-.18,3-2.79,1-.52.53-1.23,1-.87.53-1.22,1.22-.7,1.22.17-.17-1.39,1.57-2.1,2.09-1.74,1.75-2.1,1.75-.35v-2.09l1.22-2.45,2.09.88-.69-.88,1.74-3.31,1.22-.35,1.4-1.75.35-1.05.7-.17.35-.52v-1.4l2.09-.7.53-.52-.18-.53.87-2.79,1.23-.35L405.8,332l.7-.17,1.75-3.67,1.57-.35.87-1.05.17-1.39.88-1.57,1.39-1.75.18-.87.52-.53,1.4,1.57.17-2.27,2.8-.17.52.87-.87-.35-.53.88.35,1.39,1.23.35-.35.35.17,1.22-1.05-1-.7.17-.69-.35-.7-1-1.4,2.27v3.15l-.52,1.22-.7.35-1-1.22-1.05,1.22-1.39,2.62v2.09l-.87,1.92-1.23.87-.7-.17-1.22-1.22h-.87l.17,1.05.7,1-.17.7-1.75,2.27-1.22.35,1.05,1.57-.88,1.22-1.22.53L400,346l-1.92,1.92-.17.87-2.1,3.49-1.57-.17-.7,2.79-1.4.87-2.09,2.62-1,.53-.52-.35v-.88l-.7.18v1.92l-.35,1.4-1.57,2.44-.7.18-1.4,1.74-1.22.52-.7-1.39-1,.52-.18,1.4.35,1.22-1.92,1-1.92,2.09-1.05.7-.87,1.22h-1.4l-.87.7,1,1.22-.18.7-3.14,3-1.4.52-1,1.05-.53,1.05-1.05-.52-.69.34-1.4,2.45-.7.35-1-.53-2.09.53-.53-.53-.34-1-.53-.53-1.22-.17-1.57,1-1.75-.53-.52-1.22-1.57-.52-.88-1.05-1.39-.87-2.8-2.8.18-.87-.87-4,.17-1.39-1.4-1.22,1.05-1.05-.7-2.62.7-2.62-1.22-1.92,1.22-2.44-.52-1.23.17-1.39.88-1.05-.18-1.4.52-.35-.52-1.92.35-.7.7-.34-.18-3.5.88-1-.18-.88.53-2.09,1.39-2.1-.17-1.39,1.05-3,.87-1.05,2.09-5.76-.17-.52,1.05-.7,1-2.62.88-.87,1.39-4.19,1.4-2.1,1.22-3.84,1.4-.52.87-1.92.7-.35h1.92l1.4-.35.7.35.52,1.22,1.57.35.35,2.44h.87l.53.35-.53,1.92-.52-.35-.35.53Zm-20.42,53.6,1-1.05-.34-.52-1.23.52v.7Zm-.53,4.37.7-.18,1.57-.35v-.87l-.35-.52-1.22.17-.52.52Zm3-31.6.53.35.17-.53Zm0,21,.87.17v-.7l-.52-.35Zm2.1-17.29.52.53.7-.35-.35-.7-.52-.18Zm0,20.6.35.53.52.17.87-1.92h-.7Zm2.62-.87.34.7v.7l-1.22,1.57-.7.17-.17.88-.7.52v.52l1.05-.69,1.22.34.52,1.4.7.52.53-.52v-.7l-1.05-1.92,1.22-2.79v-1.75l.7-1.22-1.4.35Zm-.7-12.74h.87l.35-.7Zm.7-5.42-.35.7.17.53.52-.18.7-1.05Zm.69-3.84h.88l.35-.52-.7-.35Zm2.8,3.32-.18-.52h-.7l-1.22,1,1.4.35Zm-1.4,8,.35.52h.7l.52-.52-1.22-.52Zm.35-25h.52l.53-1.05-.53-.18Zm.35,20.95h.52l.35-.35-.52-.35Zm0,20.25v1l.17.7h.53l.52-1.57-.35-.7Zm.35-4v.7l.7.17.17-1Zm.17,7.33.7-.17-.17-.7-.35-.17Zm.18-31.94.7-.35v-1.23l-.7.88Zm.52-4,.35-.35.17-.7-.52-.17-.35.7Zm-.17,1.92.52.18-.35-1.05Zm2.44,18.16-.17.52-.18,1.92-.52-.17-.18-1.4-.35-.35.35-.52Zm20.6-90.09.7.35.87.87,1.4.53.17.7-.87,1,.87.88.35,2.61,1.23,1.4.17,1.4-1.57.7-.35.52.35,1.22,1.22,1.05-.35.7-2.09.7-.35,2.27-1.05.87v1.22l-.87.35-.7-1.22-.53.52-1.39-.87-.53.52-.52,1.57-.7.18-1.92-.7v1.75l-.52.52-1.22.17-2.27,1.58-.7.17-.35-1.05.17-.7-2.79-.52-1.22-.87-.7-1-.7-.35L366.52,288l-.87.17-.7-.35.35-1.4-.18-1.57-1.39-.87-.35-.7,1.57-1.74-.7-.18-.87-2.27,1.57-3-.52-1.22,1.74-1.74-.17-1.05.69-.18,1.58-2.44,1.22.35,1.92-.53h4.19l1.4-.69,2.26.35,1.92,1.39,2.27.53ZM365,326.24v-1.4l-.7-.17.18,1.22ZM364.43,354l.69.35-.52.52-.35-.52Zm.69-19.56.88-.17.35-.7h-.7Zm.18,1.75v.7l.7,1.05.69-1.4L366,336ZM366.52,291l-.52-.52.35-.52.52.52Zm0,40.86h.35l-.18-.53Zm.35,5.06.7.35.35-.35-.53-.35Zm2.44-12.57.53-.35.52-1.05-.87-.7-.35,1.4Zm10.83-32.65.35.53-.18,2.09-.87.7-.52-.35-.18-1.57.87-1.22Zm3.14.7-.52.52h-1.23l.18-.87,1.05-.17Zm-1-2.1.35.53-.17.35-.35-.35Zm6.11-3v.87l-.7-.35Zm3.32,68.09.17-.7-.17-.35-.35.7Zm3-7,.52.35,1.05.18.17-.88Zm3.66-2.79.18.7.52-.88ZM407.2,339l-.35.7-.87.53h-.7l-.35-.35,1.74-1.05Zm4.54-6.28v-.87l.52-1.05.53.17.17.7-.35.7Zm.87-5.94.35-.7-.35-.69-.35.69Zm4.19-1.92-.17.7-1.4-.35,1.22-.87Z" transform="translate(-261.42 -107.86)"/><path class="cls-1" d="M430.94,274.39l.87-.18,1.58.18,1.39,1.22.18,2.27,1.22,2.44-1.05,1.4.35.7-.17,1.22-.7,1.05.87,1.4-.7,1.39.53.87h2.44l2.27.53,1.05-.53h3.66l.88.53.87-.7,1.4-.52,1.92.69,1.22-.52h1.4l1.57.52,1.57-1.22,2.27.18,1.22.52,1.57-.87.7.17,1.22,1.92,1.57,1.22-.17.53-1.05.7-1.57-.18-.52-.35-4.37,1.75-3.14-.35-1.05,1.22-2.09-.52-2.27,1.39-1.23-.87L446,292.2l-1.92.34v1.4l-1.58.87-.87-.17-.52-.52-1.22-.18-2.45.87-1.4-.69-1.22.52-.17.87.35,1.22-.88,1.92.18.53L433,302.67l-1.23,1.05.53,4.54-.53.35-2.09-.18-1.22.53.17.52,1.57.17.35,1.4-.87,1.05-.7.17,1.22,2.62-.87,1.57.52,1.57-2.79,1.58.35.69,1.92-.17L428.15,325l.52,1-1.05.7.7,1.23-.52,1.22-1.75,2.09-.17.7.52,1.22,1.4-.17v.7l-.87,1.39-.53,2.45.35,1.22-1.22,1.4.7,1.74-.35,1.4.7,1.4-1.4,1,.52,1.23-.52,1.22-.87.17-.18,2.8.35,1.57-1.22.35-1.22-.35-.35.52.17.52,1.23.35.52.53-.18.7-1.22.52-1.57.17,1.4,2.45-1.4,1.74,1.05.88-.35,2.79-2.1.35-.34.35,1.92,1.92.69,1.22.18,1.22-.87.7-1.4,2.45.52.52,1.4.52h1.22l1.05-1.22.87.35,2.8-1.75,1.39-.52,3.14-3v-.7l1.4-.87,1.75.35.35-.7-1.75-.35,1.22-1.74,2.27-1.92.88.17,1-.52.18-1.57,2.79-1.23.52-1.22,2.27-1.74,1-2.27,4.19-3.84.7-1.05,1.57-.35.87-.7v-1.75l1.75-1,.87-1.05,1.22-.52v-1.92l.7-.88,1.23-.52v-.87l1.57-1.75V335l.69-.35,1.58.35.35-.35-.35-1.4.35-.52,1.22-.52.7-1.05-.7-1.22.52-1.05,1.57.52,1.22-.52.88-.87v-1.75l2.09.7.18,1.39.7.88-.53.35-.7-.35-.52.35-.52,1.74-3,2.27.35,1.22-.35.53-2.1.7-.35,2.61L462,339.86l-.88,1.22-1,.7L457,346.67l-1,.52-.35.87-.53.35v-1.05l-.87,1.05-.17,1.22-1.75,2.27-1.05.18L447,357.49l-.69.17L444,359.59l-.7.17-.35.7.17,1.05-5.41,5.41-1.57-.18-.87.88-.18,1.22-1.57.7-.7,1.22-1.05.87-.87.18-.35,1.22-3,3.14-3.84,1.75-2.44,1.57-1.4.17-.7-.35-.52.53-.52,1.92-1.92.17-1.92.7-1.75-1.4h-.7l-2.09-1.57-2.1.35-.35-.52-.17-2.27-1.4.17-.52-.35.35-.52,1-.52v.69l1.05-.34-1.57-.88-.17-.7.35-1.39.87-.88-.18-.34h-1.57l-1.05-.7.35-1.4-.52-1.4.35-.87-.87-1.22.69-1.05.18-1.4,1.4-.87L404.4,362h-.52l-.17-.7.87-1.74-1.05-3.67.35-.52,1.4-.7.7-3,1.39-.18L406,348.41l.17-.7-1-2.27,1.57-4.36v-3.14l1.75-4.37V331.3l-.35-1.39,1.05-1.75.52-2.62-.52-1.57,1.74-3.32-.52-1.39,1.4-2.27v-2.1l-.53-1.4,1.05-.34-.35-.88-.87-.87,1-3.84.7-.18.87-.87-.35-.52-1.22-.18-.18-.52,1.75-.87-.7-1.57,1.57-2.1v-1.92l.35-.52-1.05-1.05-.87-.18-1-1-1.57,1-1-.69-.87.69v-1.74l-.35-.35-3,1.22-1,.87-.53-1.22-.7-.35.18,1.22-.53.35-1.92-.52-.87.17-1.22-.69-1.05,2.44-3.14-1.4-1.57-1.92v-.7l2.62-.52.52-.52-.17-.88,1.39.7,2.45-.52,1-.87,1.23.17,2.61-.52,1.4,1.22h1.57l1.23-1.05,4.36-.52h4l.88-.88-1.05-1,.52-.53.88-.17.52-.52-1.57-1.4,1.05-1.22.52-1.92-.35-2.27.87-1.75.53-4,1.22-.7.52-1.4,1.75-1.4,5.94.53ZM405.1,350.33l-.35.35-.52.18Zm17.29-1.39.35-.53-.18-.87h-.7l-.17.52Zm.52-17.46V332h.35v-.52Zm41.38,2.09v.18h1.22v-.7h-.7Z" transform="translate(-261.42 -107.86)"/><path class="cls-1" d="M477.73,248.72v.88l3.14.87,4,3.14,1.57,2.1.17,1.57,1.23,2.44v1.4l-.88.7,1.4,1.39-.17,2.1.69,4.19-.69,1.22v.7h1.92l.34.7-1.57,1.57-.35,1.4.18.69,1.74,2.62.18,1.4-.35.7-1.57-.35-.7.52-.17.7,2.09.18.52.34-1,1.93-.53,3.31.7.88-.87,1.39-.7,3,.87,1.05-.69,1.22.34,1.4,1.4,2.61-.17,1.23-.7.52-1.05-.87-.87.7.87,1.39-.87,1.92.17,1.23.53.34,1-1.74,1.05.87-.7,1.05-1.39.17.17,1.23-1.22,1.92,1.05,3.31-1.05,3.32-.7.87-3-.35-.35,1.23h1.57v1.22l-1.92,1.22-.34.52.52.7,3.84-1.22-.17-1.75.52-.34h1.57l.7-1.58,1.92-.52,1.92-3.32,1.57.7.7-.17.35-1.22,3-1.4,1-.87.88.17,1.74-.7,1.05-.87,1.57-.18,1-.69,1.22.35,3.14.17,1.23.52.87-.87.52.18-.87,1,.17.7,1,.87.18.88.52.52,4.19.52.17,1.4,1.92.87.35,4.37-.35,1.4.88.87V321l.52.53.53,1.39-.53,1.22.87,1.23-.34.52-1.4.17-.35.53,1.57.87v.87l-1.4,1.4.88,1.22,1.22-.7.52,1.23-.87,2.62.52.52,3.5-.52,1.22-1.75.7-.35,1.39.87.7-.52.35-1.4,1.92-.7,2.09-1.39,1.4-.35,1.75-1.57,1.22.35,1.75-1.4,1.39-.35,2.27-1.4,5.06-1.22v1.22l1.4,1.23-2.44.69L546.17,328l-2.45.87L541.63,331l-2.8.18L538,332h-.7l-1.92,1.57-2.27.18-2.27,1.92-1.22-.35-.52.35-.7,1.39-2.62.53-1.4-.18v1.22h-.87l-3.66,2.8-.53,1.05-1.57,1.22.52,3.66-1.92.18-.35,1.22.35.35-3.49,6.11.53,3-.53.7H512l-1.22-.53-.53.53v1.22L508.81,364h-1.92V366l-.53.35h-1.92l-.7.35.18,1.75-1.57.87-.18,1.22-.52.53-1.92.52-1.05,3.14-.7-.35-2.09.53-.18,1.22-.52.35-1.4.17-1.92,1.4h-.7l-1,1.57-1.05.7-1.57-.35-1.22-.7-.53,1.05-1.74.7-1-.35-.7,1.4-2.1-.53-3,1.57-.53-.34-.17-.7.87-1.05.7.17.52-.35.18-1.39-.35-.53-1.4-.35-.7,1.93-.52.34-1.57-.52v-1.05l1.74-1.39.18-.53-.52-.17-2.62.7-.7-.18-.35-.52v-.87l1.4-1.05v-.7l-1.05-1.75-.35.53V375l-1.22,1.22-2.1,4.19,1.22,2.45-3.49,1.74-.87,1.22-.7.18-.52-1.22-.88-.7-5.76-.53-.52-.35-.18-.87,1.05-1-.87-1-1.22-2.45-.18-1.57.53-2.44-.35-.7.17-1.92h1.05L457,369l.53-.52-1.22-1.75.35-.7,1.22-.17,1.39.7.7-.18.88-1.22-.18-.52-1.92.35-1.4-.35.35-1.4-.52-.52-.35-1.22L457,361l1.4-.52-1.22-2.27.35-2.27.87-1.22-.17-.7.52-1.05,1.22-.7.35-.52-1-1.22.18-.7-.87-1.75,1.57-1.39-.18-.88.53-1.39-1.23-1.4,1.23-1.57-.18-2.27,1.05-1.22-.18-.53.53-1-.53-1.4,1.05-1.92L462,332l1.74-2.09h-1.39l-.35-.53.17-.7.7-.17,1.22.35v-.7l-1-1.4,1.22-2.62.17-1.39-.35-3,.53-.52.17-1.58-.52-1.39,1.57-4,1.22-.52-.7-3.49-.52-.53,1.57-3.66-1.05-1.4v-.87l1.4-1.4V296l.52-.53.53-4.19.52-1.05-.87-1.39.87-1.92.17-1.4.88-1.57-.88-.87-.17-.7.87-1.4-.35-1.22v-2.62h1.58l-.18-.7-1-1,.18-3.5.52-1-.35-1.58,1.4-1.39-.7-1.05-.35-3,.7-1.05-.17-.69.34-1.23-.34-.52.17-2.09.52-1.05-.52-4.89,2.27-3,2.79-.87ZM460.27,358h.53l.17-.52-1.05-.35Zm.35,15.89.52.52.7-.34v-.53l-.52-.35-.52.18Zm2.62-5.93.17.34.88-.17.35-.52-.53-.53-.7.18Zm3.84-15.54.7.35v-1Zm4.71,15.88.18.7.17,1.22.7.18.7-2.27-.17-.35h-1.23Zm.53-3.66h.87V364Zm.7-5.06.69.34.53.53.17,1.22-.87,1.05,1.57-.35,1.22-.87.53-1.92-2.27-.7-1.22.17Zm1-18,.88-.17.35-.7-1.23.35Zm30.38-29.85h-.7l-1.92.7-.7-.18-3,1.75-.88.87h-.69l-.88,1.05-1.74.17-.35,1.92-.88.88-1.39.17-.88,1.92-1.39.53-.7.69v1.58l-1.4.87-1.22,3.66-.52.53-1.4.52-.52.53-.7,2.09,1.05,1.75-.35.69-1.75,1.23v1.57l-1.22.87v.7l-1.22,1.4,2.09,1.39.18.7-.88.87-1.74.35v1.4l-1.4,4,1.22.69.35.7-.17.7-.7.35-2.1-.52.18.69.87,1.05,1.57.53-1.74,1.22,1.22.52.35.7-.35.7-.52.17-1.23-.52.53,2.09,1,.53.35-1.57,3.85-.7,1.22.35,1.39-.53,1.75-2.09,1.4-.35.35-1.22.69-.88,1.4-.17.87-1.22,1.23-.88,1.39.53.53-1.4,6.11-2.62.35-1.57.69-.35,1.4.18.52-1.22H505l3.66-2.8.18-2.09-.7-.88.52-.69,1.57-.18.18-1.22-.7-1.75.52-.52,1.4-.18v-1.39l.52-1.22-1.22-1.4,1.4-2.45v-.87l-1-2.62.52-.52h1.4L512,319.61l.35-.88-1-.87.35-1.57-1.05-1.05-1.22-2.79-1.22-.53-1.92,1.23Zm-.52,39.46v-.53l-1.22-.87h-.88l-.87.87-2.27.7-.17,1.05-2.8,1.92-1.57.35-.87-.18-.35,1.57h-.87L490.3,358l-1.4.7-1-.52-1.05.87v1.05l-1.4,1.22-.52,1.75-1.22.87-1.92-1.75.17,1.4-.35,1.4.18.87-1.75.87V369l-3,.35-.52.35-.18.7,1.23-.18.52.35.7,2.62-1.22-.17-.35.7.17.52,1.4.35-.35-.7.7-.35,2.44,1.4h.87l1.4-1.4,2.1-.52,2.09-1.22.87.17,2.1-2.09,1.4-.53.34-1.22,1.58-.87.52-1.23,1.92-2.26v-.88l1.4-.87h.69l-.69-.7.35-.52,1.74-.7.18-.7-1.4-.17V358l1.22-.87h1.57l.53-.52-1.4-.35-.35-.53.52-1.22,1.23-.7-.18-1.39.53-.53,1-.17Zm-26.36-23.57.52-.18.17-.52-.69.17Zm3,21.3-.69-.35-.88-1.23.35-.69,1.05-.35,1,1.57-.18.7Zm0-24.45.7-.17.18-1.22-.7.17ZM481.75,339h.52v.53ZM484,314h-.7l.35.52Zm.69-2.27.7.35.7-.18-.17-.69-.7-.35-.7.17Zm18.68,42.95.18-.53-.7-.17Zm4.19-5.59.18.7.52,1.22.53.18.17-.7-.87-1.57Zm3.32-11.35.53-.35-.53-.35ZM514.22,310l-.7-.35.35-.52h.52l.18.35Zm.7,25.32.35.52,1.22.18.52-.53V335h-1.39Zm1.22-20.95v-.53l-.87-.17.17.52Z" transform="translate(-261.42 -107.86)"/><path class="cls-1" d="M575,247.85l.7.35,2.79,1.92,1.58.35.87.87.35,1.4,2.44,2.79,1.4,2.27.17,1.4,1.23.87.34,1.4-.87,1.39-.17,1.58,1,2.44-.17.87-.7.88L585.8,270l-1,1.23-.18,1.22,1.23,2.62-1.23,1.22-.17,1.57.52,1.92-.35.7-1,.87.17,1.22-.35.7-1.74.87-.18.7.35,1.4.7.87-.35,1.57-1.57.7V291l-1.92,1.23-.7,3.66-.52.35-.7-.17-.35,1.22-1,1.22.35,1.75-.17.87-1.75,1.4-.87,1.92-1,.87-.17,1.22-1,.7-3.32,6.11-1.22.52-1.4,1.92.87,1.23-1.39.52L563.8,320l-1.57,1.23v1.92l-1.75,1.22.18,1.74.52,1.23-.17.7-1.4.52,1.22,4.36-1.57.35-.7,1.22,1.4.7.17.53-.35.52-1,.52v1.58l-1.58,2.09.53,1.22-.7.88.35.52.17,1.4-.35.52.35.52,1.4.35.35.53-.17.7-1.23.87-.87,3,.17,1.39-.52.35-2.79.35-.53.52.35.7,1.23.35,1.22-1.22,1.57.52v1.75l1.4,1.22-.18.87-1.22.7-.18-.7h-1.57l.35.7,1.22.53-.17,1.74-.52-.35h-2.1l-1.05-.35L552.1,361l.53.7,1.74-.7.7.18.87.87-.52,1.22,2.09,1.4-.17.7-1.4,1.22.7,1.05-.52,1.39.35.7,1.22-.35.35,1.4h-1.22l-.7,1.05,1,.35.35.87,1.23-1,.87.87L558,374.42V376l.35.17,1.74-.87,1.4,1.05v-1.23l1.92-.35,3.14-1.39.7-1.22,1.05-.88,1.4.7v-1.92l.87-1.05.7-.17.35-1,1.92-1.92.87-2.27,1.92-2.09.35-1.4,2.09-.7,1.05-1.05.18-2.09.52-1.22,3-4.54,1.22-2.62,1.75-2.1,1.22-2.44.17-1.75,2.1-3.31,1.74-.18-.52-2.62,1.57-2.09,2.62-4.72.87-.87,1.75-3.67v-1.22l1.39-1.22.35-1.57,1.4-.52,1.4,1,.35,1.4-.7,1.92.35,1.75-.35.52-1.92.7.17.7-.7,1.92-1.22-.18-.7,1.75.18,2.62-1.4,1.22.87,1.22-.17.87-2.27.18v1.22l-.87,1.57-1,.87-.18.88-1.57,2.27-.69,2.62-2.27,1.39.69,1.05V350l-1.22.7-.17,1.4-.7,1.05-1.22.69-.7,1.92-.87.88L583.7,358l-1.92,1.23.18,1.39-2.62,1.23-.53,2.09.35.7-2.09,3-1.57.35-.53.52-.35,1.4-1.39,1v.88L572.7,373l-1.92.7-.87,2.09-2.27.53-1.75,1.92-3.31,1.39-1.92,1.75-1.23.17-.87-.35-.7.35-1.39-.17-.7.35-.7,1.57-2.27.17-1.4-1-1.22.35v-1.58l-.35-.35h-1.74l-.53-1,.35-.53-.87-.87-1.4-.17-.35-2.1-.7-1.05v-.7L542,370.23v-1.57l-1.05-1.57.35-1.39-.18-1.23-1.22-2.27.87-1.39-1.22-1.22v-3.15l.35-.52-.7-2.1.53-1.39-.7-2.8.52-4,1.05-.87-1.05-2.27v-1.75l.87-1.4-.34-1.39,1.57-.35.35-.53-.18-.69-1.92-.7.35-.7,1.22-.7v-2.79l-.35-1.4.7-1.22-.17-1.4.52-1.22.7-.35.7-2.27L542,323.1l1.39-2.45v-3.31l1.22-.18.35-.35-.35-.7-1-.87-.53-1.57,1.92-1.05-.52-3.49.35-1.22,1.4.52.35-.52-1-2.1,1.39-.52.35-.52-.35-1.92-1.22-2.27,1.4-.18,1.05-1-.18-.87.88-1.22-.35-.7-.7-.35v-1l1.74-.87v-1.22l1.23-3.32-1.05-1.05-.18-1,1.57-1.23.53-2.61-.53-1.23.88-1.39-.35-1.05,1.57-2.45-.18-.87.88-1.39-.88-.53-.17-.7,1.75-.35.35-.52-1.23-1v-.87l1.57-1.75-.52-.87.87-1.4-.69-1.22,1.22-3.49,1-.7.35-1.39,1.4-.7.35-.53-.35-.52-1.22-.52.52-2.1,1.75-1.92.35-1.75-.18-1.57,2.8-2.27,1.39-.17,1.57.35,1.4-.7h.87l1.23.7.52-1.22h1.57l2.27.69ZM539.88,348.06h.52l-.34-.35Zm8.21,18.51.7.17.69-.17.35-.53-.35-.52-1.22.18Zm1.74-2.62.53.17.87-.69-.52-.18Zm.35-67h.35l-.35-.18ZM552.8,366l-.52.18-.88.7,1.23.17,1.22-.7.35-1.22-.7.18Zm-.35-2.61h.35v-.35h-.35Zm1.92-23.92-.35-.7h-.7l-.52,1.05.87.52ZM553,335l.7-.18.18-.87-.88.35Zm.18,15.36.52.53.18-.53Zm.35,31.6.7.18.7-.88-.7-.17Zm.87-38.93.87.52.88-.69.17-.7-1.57.17Zm.87,5.41.7-.17.88-.7-.35-.52-.88-.35-.52,1.22Zm0,7.51.88-.18-.7-.52Zm4.37-4-.35.7-.87.35-1.23-1.05,1.23-.52Zm-.7-11,.18.53-.18.52-.87-.17-.35-.7Zm0,42.08v.87l-1.22-.35.17-.69,1.23-.18Zm-.52-15.89v1.05l-.53-.35v-.35Zm5.06-59,.7.18v-.7Zm9.43-56.56-.35.35-2.62.87.52,3-.52,1.22.7,1.4-.7,1,.7.53.17.7-1.22,2.09.87.17,1.05.88-1.57,1.57v.7L571,267.4l-.53,3.32-.69,1,1,2.27-.17.7-1.4,1.92.87,1,.35,1.23-.17.52-1,.87-.17,2.1-.53,1.05.53,1.39-.18.7-.52.35-1.4-.17-1.4,1.39.7.35.88-.35,1.39.35.35.53-.17.69-1.22.53.17,1.22-2.1,1.75.53,1.22-.18.7,1.4,1.22-.52,2.44.7,1.22-.7,1.23V302l-1,.18-.7.87,1.05,1.4.7.17L569,302l.17-.87,2.1-1.22.35-1.57-.18-1.4,2.27-2.62v-.7l.87-1.39-.17-1.4.7-1.05,1.22-.35.17-1.92,1.23-1.05-.35-1.39,2.44-7.68.87-1.05-.52-1.4V274l1-1.75-.7-3.31.87-1.05-.87-1.75-.7-3.14.52-.52.35-3-1-.7-.35-.7.7-1.22L578.29,255v-.7l-2.1-2.27H574.1Zm-5.59,41.2.7.17-.18,1.05-.69-.52Z" transform="translate(-261.42 -107.86)"/><path class="cls-1" d="M611.29,318l-.18-.69.52-.18.53.52.17,1.4-.87,1.4-1.57-.87.17.69,1.75,1.4v2.62l-1.57,2.09.17.7,1.22.88-1.39,3.31-1.57.18,1,1-.34,1.92-1,1.23,1.22.7-1.22,1.57-.53,1.22-2.27,2.62,1.4,1.74-1.4,1.4-.87-.17-1.74,2.09v.52l.52.35,1.22-.87.87-.17.18.69L603.78,350l.17.88,1.4.69.35.7-.18.7-1.57.18-.7.52-.52,3,1.92-.7.7.35-.52,1.22-1.23.87-1.92,2.1-.69-.35-.53.17-.7,1.4h.7l1-.87.7.17.35.7v1.22l-.53,1.22,1.57.18.35.52-.35,1.4-1,.52L602,368l1.4-.53.17.53-.69,1,.17.7-.35,1.75,1.92,2.62L602.73,376l.52.87.7-.35.7-1,.7-.35v-.87l3-.52,2.62-1.23.52-1.39,2.79-2.62.7-1.22.7-.18,3-2.79,1-.52.52-1.23,1-.87.52-1.22,1.22-.7,1.22.17-.17-1.39,1.57-2.1,2.1-1.74,1.74-2.1,1.75-.35v-2.09l1.22-2.45,2.1.88-.7-.88,1.74-3.31,1.22-.35,1.4-1.75.35-1.05.7-.17.35-.52v-1.4l2.09-.7.53-.52-.18-.53.88-2.79,1.22-.35,1.74-2.27.7-.17,1.75-3.67,1.57-.35.87-1.05.18-1.39.87-1.57,1.4-1.75.17-.87.52-.53,1.4,1.57.18-2.27,2.79-.17.52.87-.87-.35-.52.88.35,1.39,1.22.35-.35.35.17,1.22-1-1-.7.17-.7-.35-.7-1-1.4,2.27v3.15l-.52,1.22-.7.35L652,328l-1,1.22-1.4,2.62v2.09l-.87,1.92-1.23.87-.69-.17-1.23-1.22h-.87l.18,1.05.69,1-.17.7-1.75,2.27-1.22.35,1,1.57-.87,1.22-1.23.53L640.09,346l-1.92,1.92-.17.87-2.1,3.49-1.57-.17-.7,2.79-1.39.87-2.1,2.62-1,.53-.52-.35v-.88l-.7.18v1.92l-.35,1.4L626,363.6l-.7.18-1.39,1.74-1.23.52-.69-1.39-1.05.52-.18,1.4.35,1.22-1.92,1-1.92,2.09-1.05.7-.87,1.22h-1.4l-.87.7,1.05,1.22-.18.7-3.14,3-1.39.52-1,1.05-.53,1.05-1-.52-.7.34-1.4,2.45-.7.35-1-.53-2.1.53-.52-.53-.35-1-.53-.53-1.22-.17-1.57,1-1.75-.53-.52-1.22-1.57-.52-.87-1.05-1.4-.87-2.79-2.8.17-.87-.87-4,.17-1.39L585.8,368l1-1.05-.69-2.62.69-2.62-1.22-1.92,1.22-2.44-.52-1.23.17-1.39.88-1.05-.18-1.4.53-.35-.53-1.92.35-.7.7-.34-.17-3.5.87-1-.18-.88.53-2.09,1.39-2.1-.17-1.39,1-3,.87-1.05,2.1-5.76-.18-.52,1-.7,1.05-2.62.87-.87,1.4-4.19,1.39-2.1,1.22-3.84,1.4-.52.87-1.92.7-.35h1.92l1.4-.35.7.35.52,1.22,1.57.35.35,2.44h.87l.53.35-.53,1.92-.52-.35-.35.53Zm-20.43,53.6,1-1.05-.35-.52-1.22.52v.7Zm-.52,4.37.69-.18,1.57-.35v-.87l-.34-.52-1.23.17-.52.52Zm3-31.6.53.35.17-.53Zm0,21,.88.17v-.7l-.53-.35Zm2.1-17.29.52.53.7-.35-.35-.7-.52-.18Zm0,20.6.35.53.52.17.87-1.92h-.69Zm2.62-.87.35.7v.7l-1.23,1.57-.69.17-.18.88-.7.52v.52l1-.69,1.22.34.53,1.4.69.52.53-.52v-.7l-1.05-1.92,1.22-2.79v-1.75l.7-1.22-1.4.35Zm-.7-12.74h.87l.35-.7Zm.7-5.42-.35.7.17.53.53-.18.69-1.05Zm.7-3.84h.87l.35-.52-.7-.35Zm2.79,3.32-.18-.52h-.69l-1.23,1,1.4.35Zm-1.4,8,.35.52h.7l.52-.52-1.22-.52Zm.35-25H601l.52-1.05L601,331Zm.35,20.95h.52l.35-.35-.52-.35Zm0,20.25v1l.18.7h.52l.52-1.57-.35-.7Zm.35-4v.7l.7.17.17-1Zm.17,7.33.7-.17-.17-.7-.35-.17Zm.18-31.94.7-.35v-1.23l-.7.88Zm.52-4,.35-.35.18-.7-.53-.17-.35.7Zm-.17,1.92.52.18-.35-1.05Zm2.44,18.16-.17.52-.18,1.92-.52-.17-.18-1.4-.34-.35.34-.52Zm20.6-90.09.7.35.87.87,1.4.53.18.7-.88,1,.88.88.34,2.61,1.23,1.4.17,1.4-1.57.7-.35.52.35,1.22,1.22,1.05-.35.7-2.09.7-.35,2.27-1,.87v1.22l-.87.35-.7-1.22-.52.52-1.4-.87-.52.52-.53,1.57-.7.18-1.92-.7v1.75l-.52.52-1.22.17-2.27,1.58-.7.17-.35-1.05.18-.7-2.8-.52-1.22-.87-.7-1-.7-.35L606.57,288l-.87.17-.7-.35.35-1.4-.17-1.57-1.4-.87-.35-.7,1.57-1.74-.7-.18-.87-2.27,1.57-3-.52-1.22,1.74-1.74-.17-1.05.7-.18,1.57-2.44,1.22.35,1.92-.53h4.19l1.4-.69,2.27.35,1.92,1.39,2.27.53ZM605,326.24v-1.4l-.7-.17.18,1.22ZM604.48,354l.7.35-.53.52-.35-.52Zm.7-19.56.87-.17.35-.7h-.7Zm.17,1.75v.7l.7,1.05.7-1.4-.7-.52ZM606.57,291l-.52-.52.35-.52.52.52Zm0,40.86h.35l-.17-.53Zm.35,5.06.7.35.35-.35-.53-.35Zm2.45-12.57.52-.35.52-1.05-.87-.7-.35,1.4Zm10.82-32.65.35.53-.18,2.09-.87.7-.52-.35-.18-1.57.88-1.22Zm3.14.7-.52.52h-1.22l.17-.87,1-.17Zm-1.05-2.1.35.53-.17.35-.35-.35Zm6.11-3v.87l-.69-.35Zm3.32,68.09.18-.7-.18-.35-.35.7Zm3-7,.52.35,1,.18.18-.88Zm3.67-2.79.17.7.52-.88Zm8.9-6.64-.35.7-.87.53h-.7l-.35-.35,1.75-1.05Zm4.54-6.28v-.87l.52-1.05.53.17.17.7-.35.7Zm.87-5.94.35-.7-.35-.69-.35.69Zm4.19-1.92-.17.7-1.4-.35,1.22-.87Z" transform="translate(-261.42 -107.86)"/><path class="cls-1" d="M738.38,332.52l-.17.53h-.7l-.17-.53-1.4.88-.35,1.39-2.62.88-.52,1-1.05.53.35.35,2.27.35-1.4,1.22-3.14,5.59-1.57-.35-.18.69.35.88-.52.35-1.4,2.27-.35,1.57-1.57,1.74-.52,1.92-1.22.53-.7,1.57-1.75.35-.17.52.52,2.62-2.09,1.75-.35,1.39-2.1,1.4-.52,1.92-1.05-.7-.87.87.87,1.58-.7.35L712,370.23l-2.09.88-.7,2.79-1.57.18-.53.34.7,1.23L704.34,379l-1.22.53.17,1.39-1.22,1.75-.7.18-.7,1.39H700l-1.57,1.22-.17,1.75-1.75.87-2.09,3.84-1,.88L691.77,395l-.7.17-.7-.35.18-.52,1-.7-.52-.52-1.75,1.22-1.74-1.22h-2.44l-1.58-.7-.35-1.22-2.61-.7v-1.23l-1.23-3.49-.52-.52-1.4-.35v-.7l-1.57-1.39-.17-.53.87-2.27-.52-.52,1-1.4-.35-.52-1.74-.88.87-.69,2.1.35.35-.35-1.58-1.4-.34-.7.34-1.22-.87-.35-.17-.52.35-.53h1l.18-.7-.35-1.92,1.4-.87-.7-1.75.35-.52-.7-.52-.35-1.4,1.4-1.4v-1.57l1.92-1.92-.18-.87L679,356.09l1.05-1.74V353l.53-.35.34-1.22-1-1.05.35-1.22,1.39.35,1.05-.52-1.57-.88-.18-.7.53-.87.7-.35-.53-1.05,1.23-1.39-.53-2.1h1.22l.53-.35L683,339.86l.52-1.23.88-.69v-.53l-.7-.87,1.57-1.05v-.7l-1.22-.17.17-1.05,1.57-.17-.87-1.75.35-1.22h1.4l.35-.52v-2.27l1.39-.35-.17-1.4-.88-2.27.7-1.05.18-1.39,1.22-1.05-1.22-1.57,1.22-2.27-.18-1.4-1.74-1.22-3.84,3.14-.53,1.4-.87.87-.87.18-.87,2.09-.88,1,.18,1.22-1.75,1.05-.87,1.05.17,1.22-.35.52-1.92.35.35,1.4-.87.87-1.22.35.17.87-1.05,1.4h-1.39l.7,1.4v.69L671,336v1.57l-.52,1,.35,1.23-2.45.7.88,1.39-.53,1.92-1,1.05-2.1,5.41-.7-.35-.87-1-.7.34-.35.7,1.4,2.27-.52.53-1.4-.7-1.05.7L661,354l.53,1.22.69.18-.35.69-1,.7v.7l-.88,2.1.18,1.22-.7,3.31-1.05.7-.35,2.27-1.39,1.4v1.57l.52,1.22-2.27,2.45v.69l-.7,1.23-.52,2.44-1.05.52-1.74-1H650l-1.22.7-1.4.17-.52,1.22-.87-.35.7-1.22-.88-1.74-.52.52-.35,1.05-1.92-.35-.17-2.45-.88-1v-.88l-.87-1,.17-.7-.69-1.23v-.69l.87-1.23-.53-1v-.88l-.87-1.22-.17-1.22,1.74-.7L640.27,362l.35-.7-.35-2.27,1.39-1.74-.35-.53-.17-2.27,1.22-2.44-.17-2.27.87-2.62-1.22-1.05v-.7l2.09-1.22-.87-1.22v-2.79l1.57-.88-.17-.7-1.23-.69.53-1.23-.18-1.39.53-1.22.52-3.32-.7-.7,1.4-1.05-1.4-1.92.35-2.09.7-1.4-.17-2.27.69-1.22-.34-1.4.52-1.57-.35-.87,1.22-1.05-1-1.57,1.23-1.22.17-4.89.87-2.45-.17-3.66,1.92-1.22,5.06-.7,2.62.7-.7,1.22.88,1.22v.87l.87.88,1.22.52.35.52-.17.7.52,2.8-.35.69,1.22,1.4v3.49l-.7,1,.35.7.35,3-1.22.87.7,1.4-.7,1.74,2.44.18v1.39l-.69,1.92L660,328l.35.34,1.57.18.53.35-.18,1.22-.69,1.05.17.52-.7,1.05,1.57,2.09-.35,2.27-.69,1.23.87.69.7,1.23,1,.17,2.27-2.44L667,336l1.74-1.92-.35-1.75,1.4-1.57-.17-1.4,1.22-1.05,2.79-4,.53-1.22v-.88l3.84-4,.52-1.4,1.75-2.44.69-.18.7-.7-.17-.87L683,311.4l.7-1,1-.52,2.09-2.1,1.22-.69,1.22-.18.7.35,1.05-.35,1.22.35,1.23-.17,1,1,1.05-.87h.87l1.22.52.18,1.23,2.27.34.52.53-.17,1.22.35.7.7.17.52.7-.87.87.87,1.23v.52l-.87.7.87.87,1.22.53,1.57,3.66-.52,2.1-1.22.87-.18.87,1.22.18.18.52-.87,1,.52,1.57-.7,1.75.18.87-4,1.74.18.88-.35,1.39,2.79,1.4-.18.7-3,1.05.52.35H701l.7.34-2.27,4.2.18,1.22-.88.7-.35.69.88,1.23-1.58,1.39.7,1.57-.52,1.23-.18,1.74-1.74.7-.87.87.52.35,1.4-.35.35,1.05-.53.52-1.22.35.7.35.35.7-1,1.75-.87.17-.35.53.7,1.74-2.8.35-.35.52.53.53H696l.35.52-.88.87-1.57-.34-1.39.17.17.7,2.1,1.22-.18.7-1,.87.34.7-.17.7H693l-2.44,1.22-1.92-.87-.53.35.18.52h1.22l1.22.87L690.2,372l.7.87,2.79.7-.35.7-2.44,1.4.87.7-.35.52-3.49.7.17.87.53.35,3.31-.7.88,1.05-.53.52-1.22.35-1.57-.17-1.22.35-.35.52-.87-.17-.53.34.18.53.69.35.88-.88,1.74.35,1.05,1.75,1.75,1.92,3.49-3,.52-1.22,1.22-.17.7-1.93,1.75-1.92.52-1.39,1.75-1.22,2.44-2.8,1-2.27,1.22-.52,1.75-2.62,1-.87.18-1.75,1.22-.52.87-1.92.7-.35,1,.52-.52-.87.7-2.1,1.74-1,.18-1.75,1.57-1.05.87-1v-1.58l1.22-1.22v-.87l.53-1,1-.35.35-1.39,1.75-2.1.52-1.4,1.92-1.74.35-1.22,1-.35-.18-1.23,1.58-2.44,1.39-.35.87-2.27,1-1.05.18-.87,2.09-2.27.35-1.39,1.57-.53.18-1.92.52-1.22h2.1l.52-.52-.52-1.58.17-.69,1.75-.18,1-.7h.7l.53.53-.7,1.92.17.7,1.22-.35.53.17-.18.7-.69.35h-1.58l-.52.35,1,1.57L741,328l-.52,2.26-.53.53-1.57-.35-1,1.92Zm-96,37.54v.35l.53.17.34-.52Zm.7-6.81.52.35.53-.35-.18-.52h-.52Zm7.86,15.36.35.53-.35,1.05-1-.18-.35-.52.17-.53Zm-1-44.69.17.7,1.05-.35-.17-.7Zm11,26.71h.7l-.7.18ZM662.44,321l.52.18-.52.52Zm.52,22.87v-.35l-.35.18Zm14.14,34.05H678v-.35l-.53-.18Zm2.45-15,.87.18-.17-.88-.53.18Zm2.44-3.14h.35l-.17-.52Zm.35,17.63.18-.87-.53-.35Zm.35,4,.52-.7-.69-.35-.53.18v.52Zm-.52-16.24v.7l.52.17.7-.87Zm2.44,16.06.53-.35-.35-.69-.88-.18v.7Zm-.52-11.69h.35l-.35-.35Zm1.57-4.19.52-.18-.52-.17Zm1.05-38.94v.53l-.18.52h-.7v-.7Zm3.66,17.29h.18v-.18Zm4.19,26.36v1.05l-.17.52-1,.35-2.09-.7.34-.52,1.4-.7Zm-3,21.47.18.53.7-.18v-.52Zm1-15.18h.7l.35.52H693Zm3-30.91-.18-.52-.69-.17.17.69Zm0,23.22-.35.18-.52-.35.35-.52Zm7.51-35.09-.35.7-1.22.7-.53-.18-.7-1.22.35-.52Zm-2.45-4.19.7.53.18-.7Zm.35,51.33.87-.17.18-.53h-.7Zm.87-61.1-.34-.7-.18.52Zm.88,1.57.52.7-.17-1.05h-1l.17.52Zm.7-4.37-.53-2.09.7-.88.87,1.05-.52,1.57Z" transform="translate(-261.42 -107.86)"/><path class="cls-1" d="M789.54,304.24l-.18.7-.7,1.05-.17,1.39.35,1.4-1.4,2.79.18.7-2.45,1.57.18.7-3.15,3.32.18,1.57-1.75,1.22-.52,1.23-1.05.34L777.84,324l.17,1.4-2.27.87-.35,1.22L774,328l-1.92,2.44-.7-.18-1,.53L771,332l-.35,1.05h-.87l-.88-.53-.69.18-.35.52v2.1l-.35.52-.7.18-.7-1-.35.7.35.7-.87,1.74-2.8.35-1,.7v.7l.87.87-1.22.35h-1.92l.7,1.57-1.4,1.22-3,1.75-2.27.17-1.05.7.88,1.05.35,2.09,1.22,2.1.17,1,.53.69,1.57,4.19-.53,2.45.7.7.88-1.05.69.35.7,1.75.35,3,.53,1.4,1.57,1.92v2.27l.35.87v2.8l.69.34,1.23-.69,1,3.31,1.57,1.23,1.23,2.27v1.22l-.35.7.87,1.57v1.57l.35.52h1l1,1.92v1.57l2.1,1.58-.7,1.57,2.62,2.44.18.7-.35.87,1.22,1.4,1.39,2.44-1.22.7,1,1.92-.17.52-1.92.7-1.93-1.22.53-1.05-.18-.52-1.22.35-1.4-.7.18-.87-.35-.53-.7-.17-1.4-2.27.35-1.92h-.69l-.88.7-.52-.35-.7-2.45.35-1.39-.87-3-1.4-.17-.87-3.67-1.05-.7.52-2.27-.52-.35-1.4.18v-1.75l-.35-.7-1.92-.87.88-1.92,1-.87v-1.23l-2.44.7-.35-.52.35-1.92.52-.53-.69-.69-1.05.87-.7.17-.87-1v-2.27l-.53-1.23.53-1-2.62-2.1.87-1.39-1.92-1.92-.52-1.58-1.4-1.74v-.7l.87-1v-.87l-.52-.7-.87,1-1.05-1.22-1.57-.53-1.4,1.05.53,1.4-.35.52-1.4.17-.87-.34-.7.34.35.7,1,.88-1.74,1-.35.53.17,3,.35.69-1.57,1.4-.87,2.44.35.53,1.39.7-.52,1h-1.57l-.87.88,1,1.22-.87.87-1.4.7-.17,2.1-1.75,1.22.53,1.92.87.87-1.4,2.45-1.92,1.92-.17.69-.87.88-1.23.17-3-.35-1.23.18-1.22-1.4-.87.35-.87,1.05-1.23-.53-.17-1.39,1.22-2.62-.35-.35-1.57.35-.87-1.4,1-.7,1.22-.17-.7-1.4.87-1-.35-1.22-1.22.35-.52-.17v-.53l1.57-.87,1.4-.18-.7-1.39.7-1.57-.18-.7.7-1.22-1.22-1.05,1-1.75.35-1.22-.17-.87,1.4-1,1.22.52v1.75l.35.52.69.18.53-.53-.7-1.39.17-.7-.34-.52-1.23-.7-.52.35-1.4.17-1.22-.52-.17-.7,2.62-.87.52-.53-1.05-1,1.22-3.5-.52-1-.17-1.58,1.74-.69-.7-1.23,1.4-3.14v-1.22l-.35-.52,1.05-1.58-.35-1.92-.53-.52.88-3.67,1.74-1.57.18-.87-.35-2.1.17-1.22,1.58-1.39.17-1.4.87-1.05-.35-.7v-3.14l1-1.74v-.88l1.4-1.22-1.22-1.05.52-1.74.7-.18-.53-1.05.35-.69,1-.7.18-.87,1-1.58-1.22-1.57.35-.7,1.05-.87-.53-1.22.7-1.22L738,307l.88-1.23-.35-1.22.7-1.22.17-1.22-.35-2.62,1-2.45.17-1.57-.7-1.57.35-.52,1.23-.7-.18-.87.35-1.23.87-1-.52-1.23.52-1.22v-1.92l.7-2.62,1.57-1.57.18-6.28,1.05-1.57.17-1.4-.35-3.14,1.4-1.23-.18-.87.53-1-.88-2.09.53-3,.52-1.05-.17-.7,1.39-1-.17-.88.35-.34,5.58-.7,1,1.57,1.22.52,1.57,2.27,1.23,1.05-.35.7.17,1.39.88.88.17,2.79-1.22.52-.7.88.17.87h.7l1.57-.87.18,1.22-.87,1.05.17.7-.7,2.09h-.87l-.53.35.18.52,1.75-.87.87,1.05-.18,1.22-.69,1.05.69,1-1.22.88.87,1.39-.52,1.92.18.7-.53,1.05-1.92.52v.7l-.52.88-1,.69-.52,1.23,2.27-.35.87-.7-.18-1.57,1.4-.35.87.87-1.22,2.79-1,.88-.69,2.09-2.8,1.57.53.7,1.92-.7h1.22l.35.7v2.8l-3,.52-.18.7.35.52,2.27-.17.53.87-.18.52-1.74.88-.18,1.39-.87.88v.69l.35.35-.87,1,.87,1.92-.18.87L755,308.43l.17,1.4-.35.7.35.52,1.75.7.35-2.62h.87l1.4-.7.87-.87.52-1.22h.7l1-.53.35-1.74.7-.18,1.22.7,1.57-2.09v-.88l1.75-.7.17-1.22,2.44-.7,1-.69h1.57l1.23.52.69-1.22,3,.52.53-.17.69-1.75.7-.17,1.22.52v1.22l1.57.35,1.23.87h1.92l2.62.53-.35,1.22,1,1.22-.7.35h-1.22l.69,1.05Zm-63.2,70.36h.87l.87-.7-1.22-.7-.52-1-.7.17-.18.52Zm2.79,7.51.17-.88-.87.18.17.52Zm1-26.71v.69l.52.18.52-.35Zm.52,2.09.17.52h.53v-.69Zm3-13.44-.87.17-.7.18-.88,1,.35.35,2.1-.7.35-.52Zm-1.75,2.79-.52.18-.18.52.7.17Zm0,32.65.35-.53-.52-1-.35.52Zm2.1-18.68.52.17,1.05.7.7-.35-.18-.7-2.79-1-.87.69.17.53Zm.87-6.11H734l-.53.35v.69l.7.18.7-.35Zm-.17,17.11-.18-.53H734l.17.53Zm-.53,10.47v-.35H734Zm0-15.36.7-.35.52-1.22-1.22.35Zm.7,2.62-.17-.35h-.53Zm.87-.53.53.35h.7l1-.87-1.39-.35Zm2.8-5.06.7-.17.17-.53-.87-.17-.35.35Zm-.35,3.14.87-.17.35-.7-.52-.35-.7.17Zm3.31-14.31-.17-.53-.7-.17-.35.52.18.87Zm-1,5.58h.87l.87-1.22-.52-.87-1.4,1.39Zm.7-7.33h.87l1.05-.87-1.58-.53-.69.35-.18.53Zm3-6.81h-.7l-.69.18-.35.52.52.17,1.22-.34Zm-1,22.17.69.7-.35.53h-.69l-.35-.35Zm0-14,.17.7.52.34,2.1-.52-.7-.7Zm1.39,8,.53.35v.7l-.7.35-.53-.18Zm.18-.35v-.87l.52-.35.7.17-.52,1.05Zm.87-25.49.35.35.35-.18Zm2.1,8v-.52l-.35-.53h-1.23l-.34.7.52.35Zm33.86-36.84.7.35,1.22-.35-1.39-.7-.88-2.79-1.39-.35-2.45-1.22-1,1.75-.7.17-1.57-.52-.53,1.39-1.22.7-.87-1.05-1,.88.18,1.22.69.87-.17.53-3.67-.18-2.27,1.4-.35.7-.17,2.62-2.27,1-.52,1.57-1.57.88-1.4,2.27.17,2.79L757.59,321l-1.4.18-.18,1.39-1.74,1.75.17,1.22-2.27,1.75-.17,1.39-1.4,1.23.35.69-.35,1.23,1.22,1-1.57,2.27,1.57,3.49-.52.35-3.66-.17-.53.35-.17.7h2.44l.52,1.74h.88l1.92-1.74h.87l1.75-2.62,1.22-.7,2.09-2.27,1,.17.53-1.22.87-.87h.7l1.57-2.44,1-.88v-1.39l3.5-1.05-.53-1.4,1.75-1.22,2.09-2.44v-.88l.88-.87,1.39-.52,3.15-2.45.52-1.22-1-.87.7-.7,1.57-.18.53-1,.17-1.4.87-.87,1.22.17.18-.7h-1.4v-.7l1.05-1.22.17-1.92Zm-32.29,36.84.52-.7H749Zm3.66,10.82h-.7l-1.39,1,1.74.35.53-.52ZM752,313.15l-.53.17-.34.52h1Zm5.41-18.34.35.35v-.35Zm3.49,15.54-.87.35-.35.7.7.17.52-.34Zm2.1,67-.18.88.7-.35Z" transform="translate(-261.42 -107.86)"/><path class="cls-1" d="M869.67,318.56l-.53.52-1,1.22v.7l.7,1.05-2.62.35-.35,1.4-1.4,2.09.35,2.27-.52-.52-1.4.35-.52.52-.18,1.92-2.09,1.05.52,1.39-2.62,3.5-.17,2.09-1.4-.52-.7.17-.87,1.05-.18,1.4-1.57,1.92.53,1.57-.35.52H851l-.53.35.88,1.75-.35.69-1.22-.52-2.27,1.75V350l-.35.35-1.4.18-1.57,1.22.35,1.57-2.62,1.22-.7,1.22-1.22.7v1.22l-1.22,1-1.57,2.45-1.23.52-.52.7.17.7-3.31,1.39-.18,1.4-2.09.87-.35-.7.35-1.22h-1.4l-1.57,2.45,1.22.35-.35.52-1.57.87-.87,1.05-2.27.7-.87,1.22-.7.35-1.4-.7-1.22.7-.87,1.05-1.23-.35-.52.52v.87l-3.32,2.45-3-.18-2.45.53L807,376h-1.22l-1.22.69-.18.7-1.57.18-.35-.35v-.87l-.35-.53-.69-.17-.7,1.22-1.22.52L799,377l-.52-1.39-2.1-.35-.35-.53.35-1.57h-.7l-.69.53-1.23-.88-.52-1.22.17-.87-.34-.53-1.4-.34-.35-.53.17-.87-.35-.52-1.92-1.05.53-1.4-.18-.52-.69-.35-.88.17-.35-4.71-.87-3.67,1-.7-1.22-1.39-.18-.7.35-.7,1-.87-1-3.32.18-1.05.52-.52-.18-.7.88-1.22-1.22-1.57.34-.7,1.23-.87.17-1.75.35-.52-1-1.57.35-.53,1.75-.17.35-.35-.7-1.57,1.22-2.45,1.57-2.09v-.88l.87-1L793,328l.52-.53,1.4-.52-.35-1.22,2.62-4,1.39-.35-.17-1.4,2.62-3.31.87-.53,1.4.18.52-.35-.7-1.22.87-.88,1.58-.35V312.1l.87-1.05h1.4l-.18-1.57,2.79-3.49,2.1.17.52-.35-.17-.87.52-1.4.7-.17,1.92-1.4,3-.35,1.22-.7,1.22.35,3.84-.52,1.57,1.05h2.45l1.4.35,1.92,1.57h.87l4.71,7.51v.69l-1.22.18-.35.7.18,1.39.52.53.52,1.39-.52,1.05-1.57.52.7,1.58-1.92,1.22-.88,2.09-1.39.35-.7,2.45-1.57.52-.53,1.4-1.22.7-1.22-.53-.18,2.1-.52.35-1.4-.18L824.1,331,822,332l-.7,1.22-3.67,2.27-1.74.53v.87l-.7,1.22-.7.18-1-1.05-.7.17-1.39,1.4-1.57.17-1.58,2.62h-1l.35,1.23-.18.69-1.22.53-1.92,2.79.52,1.57-1.57.53.18.69,1,.53.18.52-.53.87-3.31-.87-1.57,1.22-2.1-.17-.52.35.35.52,2.09.7,2.45-1.22,1.39.7H804l-.34,1.57.34.52,1.23.35.52.52-1.4,1.4-1.39.18-.35.34.87,1.23-1.92,1.22.35.52,2.27-.52,1.57,1.05-.35.7-1,.87-1.39-.18-2.1-1.22-.35.53.53,1L803.5,364l2.1-.52.52.35.17.87-1.39.52-.53.53.7,1.92.7.35.52-.35.35-1.4.53-.52,1.39,1-.52,1.4.52.35,1.92-.35,2.45,1.22,1.39-.17,1.75-1.4h2.27l3.67-2.27h2.27l.52-.52-.35-.88.35-.69,1.57.52,1-1.22,1.74-.7,1.93-2.62h1.74l.18-1.22.69-1.05.7-.17,2.45-2.27,1.22-.53.52-1.57,1.57-.52.18-1.4,1.57-.7,1.57-2.27.52-.17,4-4,.17-1.57,1.23-.7,2.79-3,.35-1.23,2.27-1.74-.52-1.4,1.92-1.57V331l.69-1h.88l.52-.35v-.88l.52-1.22.88-.87,1.57-.18-.52-.87.87-1.92.7-.52.17-1.05,1.22-2.62v-.7l1.75-.17.52,1.05.53-.35.17-.88,1.22-1.22.88.18Zm-78,39.1.7-.17.17-.52h-.87Zm.52-20.6.53-.52-.53-.52-.35.87Zm1.57,23.05h.53l.7-.7-.88.18Zm.88-6.64-.35.35-.18.53,1,.17.35-.52Zm1.92,9.78h.7l.87-.52-.35-.53h-2.1l-.69.53v1Zm-.18-3.14v.52l1,.18.17-.7Zm1.57-2.79.18-.88-.53-.52H797l-.52.52.7.88Zm0-3,.53.35.7.17.52-.35-1.22-.7Zm2.1-22.7-.7-.35-.7.18.35.7h.7Zm-1.4,31.6.7-.35-.35-.35Zm.7-13.79.7-.18.35-2.09-.7-.17-.87.52Zm.7,8.2h.7l.7-.17.17-.52-.52-.35-.7.35Zm1.22-2.44h-.7l.7.52Zm-.35-14.14.18.52,1.39.35.35-.35-.52-.52Zm1.57,24.62.7-.53-.52-.52-.53.52Zm4.37-12.4-.53.52-.87-.17-.52-.7.52-.52,1.22.35Zm-1.4,6.11-.52-.35V358l.7-.35.52.53.17.87Zm.52-29.33-.34.87,1.57.53.35.7.87.17.35-.7-1.57-.52-.35-.7Zm3-1.57.53.17v-.35Zm2.45,2.62-.18.87-.35,2.1,2.27-.35,1-.7,1.05-1.75,1.4-.35.69-1,1.92-.35,2.27-1.57h.88l1.74-2.27.87-.18.18-.52,2.27-1.92.35-1.05,1.92-2.1.17-.87,1.92-1.74.53-1,.17-1.57.7-1.57-1.75-3.32-1-.87-.7-1.4-1.92-.87-.88-1.23-.69,1.23h-1.05l-2.27,1.22v.87l-.7.52-.7-.17-.7-1.22-1,.7-.35,1.22.17,1.4-1,1.22.17.87-.35,1.22-1.22,1.4-.87,2.27v.87l-1.93,1.75,1.4.52.35.7L814,324.49v.88l-.53.52-1.92-.35v.87l1.4,1.58.17,1.92Zm.35-1.75-.53-.17-.35.35.53.17Zm19.72,33.17.7.18.18-.7Zm17.11-13.27h.53l-.35.53ZM855,342l.18-.7.87-.52.35.52-.7.88Z" transform="translate(-261.42 -107.86)"/><path class="cls-1" d="M874.56,299.18l.34,1.4,1.57,1v.88l1.75,1.57-1.4,1.57.35,1.22-.17.87h1.4l.17.7-.7,1.75-1.92.7,1.22,1.39-1,1.57,1.74,1.4-1.57,1.22.52.88-1.74,1L874,319.43l2.27-.35,1.4.18.17.69-1.4,1.4.18,1.92-.35.53.87,1.22L876,327.29l.18,1.92.52,1.22.7-.18,1.22.35.52-.35.7-1.22-.17-1.74,1.4-.18v-2.27l1.57-1.57.52-1.39,1.75-2.1v-.7l1.22-.7.87-1.92,1.75-1.92.17-1.92,1.92-.87.35-1.57h1.05l1.57-2.62.7-.18,2.09-1.74,1.4-.35,2.27-1.22h1.4l.69.35,2.45-.35,1.39,1.39h1.05l.35.53,3,.87.52,1.75-1.22,1.74v.53l.7-.18,1.22.53.18,1.22-1.57,1.39.87.7-.87,1.22,1.39.7v.7l-1.39,1.92.17,3.49-2.1,1.05L910,325l-.7,1.39.35.88v2.27l-.88,1h-1.39l.35,3.15.35.69,1,.88-1.22.87-.35.7.53,1.4-.35,1.57-2.1,1.57-.35,1.22-2.62,1.75-1.22.17-1.92-1.4h-1l-.87-1.39-.87.17-1.92-.7.35-1.22-2.45-1.22-.35-.52.35-.7,1-.88-1.4-1.22.18-.87L892,332.7l.35-.52,1.4-.53.35-2.62-1.22-.35.87-3.66.7-1v-1.22l1.39-.18.35-.52-.35-.52-1.39-.7,2.62-5.94-.18-1.57-.7.17-.35,1.05-2.61,2.1-1.58,2.44-.17,1.22-1.4.88-.7,1-.17,1.4L888,325.19l-2.1,1.75.35,1.22-.87,1.22.7.7-1.57.52-.53,2.1-.87.87-.7-.17-.7.35.7,2.44-.7.35-1.39-.35-.53.52V339l-.7.53h-.87l-.17,2.27-1.23.87-.52,1.4-.87,1h-1l-.52.53v1.57l-1.23,1.92v2.62l-1.39,1.74.35,1.93-.88,5.41-1.22.87.18,1.22-1.4.88-.52-.35-.7-1.23-.53.35-.17,1.92,1.92.88-.17,3.31-1.23.35-.69-1.22-.88-.17-.52.87-2.1,1.74.53.35.7-.17v2.27l.87,1.05-.7,1-1.22-.17-1.22-.7-.7.7,1.57,1.57V377l-2.27,1-.35,1.4-3.84.7-1.22-.18L853.6,379l.35-1-.52-.53-1.4-.17-2.79-3.49,1.57-1.05-.35-.52h-1.57l-.52-.7.17-2.45,1.92-1.22-.17-.52-2.1-.7.7-3.32.52-1.05-.69-1.22,1-.7-.35-.69.18-1.75.52-.52-.17-1.58.35-.69-.53-1.23.18-.69,1.4-1.4-.18-2.27,1.05-2.62-.7-1.22,1.75-2.27.34-2.79-.17-.7,1.05-1.4-1.05-1.4.7-1,1.22-.7-.17-.88,1.39-1.92-.52-.87.52-1-.35-1.57,1.4-1.57-.52-1.74.35-.7-.88-1.57,1-.88.35-1.74,1.57-1.75v-1.4l.35-.69-1-.88.35-1.22,1.92-.52-.17-.88h-.7l-.35-.52.52-3.32,1.05-1.92L863,307l-1-2.1.18-.87-.35-1.22,1.57-2.45.35-1.22,2.62-2.1.7.18,3-.35.69.87,1.4.18Zm-25.15,71.58v.35l.7-.18Zm14-4.19.35.52.7-.17.17-.53-.69-.35Zm1.92,5.59-.52-.53-.18-1.57.88-.35.87.7-.35,1.4Zm0-18,.88-.17-.18-.53-.52-.17Zm1.05-13.09h.7l1.22-.7-.52-.35-1.23.35Zm1.92,16.24h.52v-.7h-.35Zm2.44,8-.52.69v-.52Zm1.23-32.83.52.18.7-.18-.18-.69h-1Zm.87,2.1.17.52.53.35,1.39.18.88-.7-1.57-.53Zm1.22-2.79v.69l.53.7.69-.52,1,.87,1.4-.52.35-.53-1.23-.87-.35-.7Zm.35-15.37.7-.17.35-.7h-.7Zm13.79,10.83-.35.52-.69.18-.35-.35.87-.7Zm5.41-13.1h.88l.52-.35.18-.69-1.4.34Zm6.64,31.25h.35v.7L900,346Z" transform="translate(-261.42 -107.86)"/><path class="cls-1" d="M936.18,295.86l.88-.17,3.84.87.69-.17,2.1,1.22,1.57,1.39v.7l-1.4.18-.52.35.17,2.62,1.92,1.74.18.87-1.22.53-.88.87L944,310l-.87,1.05-.18,1.57-1.22.87h-.87l-.7,1.05-1.4,3.84,1.05,2.27,1,.18.69,1.22.18,1.4,1.4-.18.87,1.92.35-.52,1.22.7,1.92,1.92v1.39l.87,1.05,1.23.52,1.22-.34.52-.53,1.57,2.45-1.57,1.57.87.17,1.4,1.4h1.22l1.22-1.05.7.35.7.87-.17,1.23.35.69,1.22.35.35.53-.35,1.39,1.22.35,1.57-.17,1.05-.7.17-.52,3.32-1.05,1.22-.7,1.4-.17,2.62,1.39-.18.7-3.66,1.05-.18,1.39-2.09.35-.35,1.4-1.57,1.4v.87l-.88,2.27.18.7h2.09l-.87,1.57-.7.17-1.22-1v1.22l1.92,1.4-1.22,1.39,1.92,1.57v1.4l1.05.7.52-.35v-.87l-.7-2.1.35-.7-.52-1h1l-.18.87h1l2.09,1.05.35,1.22-.17.7-1.4-.18-.35.53,1.05,1.92.17,1.39.7,1.05-1.57,3,.52,1.22,1.05.7.18.7-1.4,1.22.17,3,.7.87-.35.7-1.22.35.35,1.92-.87.87-1.22.52-.35,1.58.17,1.39-1.22,1.4-.52,2.44h-1.4l-.35.35-.35,1.92-1.22.35-.87,1.57h-.7l-3.49,2.1-.18,1.74-2.27,1.58-1.4.52-1,1.57-2.1-.52-.52-1.57-1.22.87-.18,1.22-2.62.87-.7.88-1.39-.18-2.8.53-1.22-.18-2.44-1.4-.7-1.22-1.4.7-.17-1.4-1.22.53-1.92-1.22h-.88l-1.92-1.4.18-1.22-2.1-1.05V386.3l-1.74-1.57-.18-1.58-1.05-1.39.53-1.75-.7-1.74.35-.7-1.22-1.4,1.22-1.57-.87-1.92v-1.22l.35-.53,1.22-.52-.18-2.1,2.1-2.27.35-1.22,4-.17V364l-.87-1.05,3-1.22.17-.7h.87l.53-.35.17-.7,3-2.09.18-1.22,2.09-.88.35-1.57,2.79-1.57v-1.74l-1.74-2.1-.35-1.57-1.4-.52-.17-1.58L936.71,343l.35-1.4-.88-2.79h-.87l-1.4-.52-2.27-1.58-.35-1.57-1.74-2.09V332l-1.92-1.92-.18-.87.35-1.4-.35-.7-1.92.88-1.39-2.27-1.23-.7V323.8l-2.27-4.89.18-1.05-.35-.52v-3.85l-.35-.52.17-3,.7-1.92.53-3,.7-.87.17-2.27,1.4-1.22.69-1.75,1-.52,1.05-1.22,1.22-.7,5.76-1.05,1.23-.87.52.17ZM944,356.79l-.7.18-1.22.69h-.88L940,360.11h-1.57l-2.27,2.44-1.22.88-1.57,1.92-1.75,1.22-.52,1.22-.52.18-2.45,2.26-.17,1.4-.53,1.05.18.7-.53,1.39.35,1.05-.52,2.1.7,1.39-.53.53.53.35.17.87,3,4.71,5.59,2.27,2.79.35,1.57-1.22,1.4-.17,1.39-1.58v-.87l1.58-.87.34-.53-.34-1.39,1.92-1.57-.18-1.23,1.57-2.09.35-1.4,1.4-1.39-.7-3,1-1.92-1-1.75-.35-3-1.05-1.22-.17-.7.52-1.92-1.39-.35-.88-.69.53-1.4Zm-5.59-47.31-.35-.7.18-1.22.87-1.22v-1.4l.52-1.75-2.61-2.44-1-.52-1.57.17-1.23.52-1.74,2.1-.87,4.36-.7,1.05,1.22.87.7,3.32h.87L935,314l1.92-1.92Zm-3,30.38.35.87h-.52Zm6.11-14.14h.53l-.35-.7Zm12.57,6.11h.53l-.53.69Zm1.4,52.9-.35.52.35.52,1.22.53v-1.05Zm.52-19.38-.17.69.52,1.23h.88l.52-.35v-.7l-.87-.87Zm1.75-15-.35-.7-.7-.35v.7Zm.7,5.59.17.52h.7v-.7Zm.7,4.89-.18.7,1.22.35,1.05-.88h1.4l-.53-.52-1.39-.18Zm1.74-2.1h.7l3.14-.7v-.52l-1.39-.7-1.92.7-.53-.35-.17-.7h-.53l-.17.7Zm4.89,1.4-.52.35-.53.17-.17.7,2.62-.35.35-.52-.7-.35-.87-1.92-.7.17Zm-1.05,8.2v.88h.7v-.88Zm14.84-37-.52.53-1.75,2.44-2.61,1.22-1.58,2.1-.69-.35-.35-1.22-.7-.35-1.4.17-.17-.7.52-1.22,1.05-.87,1.22.52.52-.35V332l1.4-.52.35,1.57,1.22-.35v-2.79l1.22-.18Zm16.41-15.54.53.18,2.44,2.44-.35.88-1,.69-.88,1.75-3,2.62h-1.58l-1.22.52-1.57,1.92-2.79,1.05-2.27,1.57-.7,1.22-2.45.88-1.39-.18.35-1.57-1-1.22.35-.52,1-.53,3-2.62,1.93-.7,1.92-1.57,2.09.35.35-.52-.52-1v-.7l.69-.52,1.4.17,1.22.7.35-.7-.87-1,.17-.7,1.4-.53,1.4.18,1-.87Z" transform="translate(-261.42 -107.86)"/></g><g id="Sterren"><polygon class="cls-1" points="799.47 9.19 809.55 22.77 826.46 22.16 816.65 35.95 822.46 51.84 806.32 46.78 793 57.21 792.82 40.29 778.79 30.85 794.82 25.45 799.47 9.19"/><polygon class="cls-1" points="850.9 0 853.67 12.56 865.59 17.39 854.51 23.91 853.59 36.74 843.97 28.21 831.49 31.3 836.62 19.52 829.82 8.6 842.62 9.84 850.9 0"/><polygon class="cls-1" points="845.33 39.55 849.49 47.97 858.79 49.33 852.06 55.88 853.65 65.14 845.33 60.77 837.02 65.14 838.61 55.88 831.88 49.33 841.18 47.97 845.33 39.55"/></g></svg>