<svg id="Laag_1" data-name="Laag 1" xmlns="http://www.w3.org/2000/svg" viewBox="0 0 911.03 1270.63"><defs><style>.cls-1,.cls-6{fill:#fff;}.cls-2,.cls-6{font-size:174.59px;font-family:CanvasScript-Reg, Canvas Script;}.cls-3{letter-spacing:0em;}.cls-4{letter-spacing:-0.02em;}.cls-5{letter-spacing:0.01em;}</style></defs><path class="cls-1" d="M820.22-439.8l-1.38-3.41c-1.34,1.86-2.33,3-3.09,4.34-4.54,7.85-6.23,16.39-6.76,25.37a58.63,58.63,0,0,1-3,14.61c-3.12,9.53-6.41,18.92-6.72,29.15-.14,4.86-.81,9.91-5.2,13.51-1.16,1-1.27,3.2-1.83,4.87q-3.6,10.78-7.19,21.58l-1.4.15a42.37,42.37,0,0,1-2.37-4.25c-.73-1.76-.93-3.77-1.81-5.43-1.45-2.71-1-4.71.74-7.24a10.07,10.07,0,0,0,1.3-6.73,54.53,54.53,0,0,0-3.3-12.17c-1.13-2.81-3.49-5.11-5-7.79a18.21,18.21,0,0,1-1.85-5.1c-1.11-5-9.45-9.44-16.46-8.07-5.1,1-10,2.79-15.16,4.26-7.12-13.6-5.4-26.48,6-38-2-2.65-3.78-2-5.73-.47-6.38,5-9,4.77-14.35-1.42a44.72,44.72,0,0,1-4.36-5.57c-2.54-4.1-6.59-4.11-10.37-3.45-2.61.45-3.44,3-2,5.57a61.39,61.39,0,0,1,4.81,9.3l-6.68-6.47-1.63,1.38c1.74,2.48,3.4,5,5.23,7.43,4.16,5.49,8.42,10.91,12.59,16.4a4.31,4.31,0,0,1,.54,2.05c.63,7,1.31,14.08,1.8,21.13.36,5.21.11,10.5.77,15.67a23.06,23.06,0,0,0,3.21,8.72c1.6,2.65,3.45,4.85,1.12,7.91a1.9,1.9,0,0,0-.45,1.22c.6,7.42.3,15.07,2.12,22.19,2.35,9.23,7.82,17.23,12.63,25.53,5.93,10.23,10.6,21.36,5.78,34-2.32,6.1-2.59,13-5.22,19-2.89,6.49-7.35,12.3-11.33,18.26-.59.88-2.33,1-3.54,1.45l-9.33,3.55,4.48,3.09-14.45,18.2c-.82-1-1.38-1.36-1.53-1.86-2.76-9.5-10.9-13.57-18.49-18-7.94-4.61-19.48,1-20.32,10.13-.35,3.82-2,6.3-4.38,8.72A23.05,23.05,0,0,0,660-178.46c.17,3.35.74,6.68,4.53,7.81,4.1,1.22,7.14-.6,9.4-4,1.51-2.28,3-4.55,5.31-7.94,2.34,5.18,4.24,9.22,6,13.32,6.78,15.85,26.72,20,38.32,6.23,7.55-8.94,16.7-16.32,26.4-22.86,3.84-2.59,6.9-5.9,10.29-9.15,4.39,6.5,6.34,23.26,5.11,42.13a5.54,5.54,0,0,1-1.94.64c-8.13-.53-14.77,3.22-21.49,7.06-3.16,1.81-6.79,2.77-10.13,4.29-2.23,1-4.32,2.33-6.49,3.48-1.26.66-2.72,2-3.81,1.74-3.39-.74-5.05.5-5.45,3.67-8-.32-8.08-.12-9.76,7.5-1.36,6.18-3.45,12.22-4.47,18.45a75.4,75.4,0,0,0-.69,15.68c.15,3.06,1.59,6.35,5.53,6.34,3.72,0,5.43-3,6.09-6.06a37,37,0,0,1,8.79-17.49c.23.07.58,0,.72.21,5.53,6.62,7.41,5.64,14.69.72,7.54-5.11,16.59-8,25.11-11.61,5.68-2.38,11.69-4,17.39-6.29,9-3.67,14.18-10.47,16.08-20,3.7-18.57,3.38-37.21,1.61-55.93-.5-5.27-.51-10.6-.5-15.9,0-2.17-.6-4.91,2.75-5.69.39-.09.65-1.21.78-1.89,2.81-14.31,6.49-28.52,8.13-43,1.82-16,3.41-32.22.87-48.41-1.63-10.41,1.52-20.29,3.82-30.17.92-4,2-7-2.87-8,1.73-7.19,3.87-13.93,4.88-20.85,1.36-9.31,1.82-18.76,2.75-28.15.16-1.58.23-3.6,1.2-4.62,4.21-4.46,4.2-10.14,5.37-15.58.57-2.62,2.55-4.93,4.1-7.77l-3.35-1,3.28-2.6-.45-1.07-6.45.86,3.76-5.57-.61-.88Z" transform="translate(-4.91 515.63)"/><path d="M825.16-440l-3.76,5.57,6.45-.86.45,1.07-3.28,2.6,3.35,1c-1.55,2.84-3.53,5.15-4.1,7.77-1.17,5.44-1.16,11.12-5.37,15.58-1,1-1,3-1.2,4.62-.93,9.39-1.39,18.84-2.75,28.15-1,6.92-3.15,13.66-4.88,20.85,4.91,1,3.79,4,2.87,8-2.3,9.88-5.45,19.76-3.82,30.17,2.54,16.19,1,32.39-.87,48.41-1.64,14.45-5.32,28.66-8.13,43-.13.68-.39,1.8-.78,1.89-3.35.78-2.75,3.52-2.75,5.69,0,5.3,0,10.63.5,15.9,1.77,18.72,2.09,37.36-1.61,55.93-1.9,9.56-7.1,16.36-16.08,20-5.7,2.32-11.71,3.91-17.39,6.29-8.52,3.56-17.57,6.5-25.11,11.61-7.28,4.92-9.16,5.9-14.69-.72-.14-.16-.49-.14-.72-.21a37,37,0,0,0-8.79,17.49c-.66,3.08-2.37,6-6.09,6.06-3.94,0-5.38-3.28-5.53-6.34a75.4,75.4,0,0,1,.69-15.68c1-6.23,3.11-12.27,4.47-18.45,1.68-7.62,1.78-7.82,9.76-7.5.4-3.17,2.06-4.41,5.45-3.67,1.09.24,2.55-1.08,3.81-1.74,2.17-1.15,4.26-2.47,6.49-3.48,3.34-1.52,7-2.48,10.13-4.29,6.72-3.84,13.36-7.59,21.49-7.06a5.54,5.54,0,0,0,1.94-.64c1.23-18.87-.72-35.63-5.11-42.13-3.39,3.25-6.45,6.56-10.29,9.15-9.7,6.54-18.85,13.92-26.4,22.86-11.6,13.73-31.54,9.62-38.32-6.23-1.75-4.1-3.65-8.14-6-13.32-2.27,3.39-3.8,5.66-5.31,7.94-2.26,3.41-5.3,5.23-9.4,4-3.79-1.13-4.36-4.46-4.53-7.81a23.05,23.05,0,0,1,6.77-18.07c2.36-2.42,4-4.9,4.38-8.72.84-9.08,12.38-14.74,20.32-10.13,7.59,4.43,15.73,8.5,18.49,18,.15.5.71.88,1.53,1.86l14.45-18.2-4.48-3.09,9.33-3.55c1.21-.46,3-.57,3.54-1.45,4-6,8.44-11.77,11.33-18.26,2.63-5.92,2.9-12.86,5.22-19,4.82-12.63.15-23.76-5.78-34-4.81-8.3-10.28-16.3-12.63-25.53-1.82-7.12-1.52-14.77-2.12-22.19a1.9,1.9,0,0,1,.45-1.22c2.33-3.06.48-5.26-1.12-7.91a23.06,23.06,0,0,1-3.21-8.72c-.66-5.17-.41-10.46-.77-15.67-.49-7.05-1.17-14.09-1.8-21.13a4.31,4.31,0,0,0-.54-2.05c-4.17-5.49-8.43-10.91-12.59-16.4-1.83-2.41-3.49-5-5.23-7.43l1.63-1.38,6.68,6.47a61.39,61.39,0,0,0-4.81-9.3c-1.47-2.56-.64-5.12,2-5.57,3.78-.66,7.83-.65,10.37,3.45A44.72,44.72,0,0,0,725.7-422c5.38,6.19,8,6.44,14.35,1.42,2-1.53,3.72-2.18,5.73.47-11.45,11.51-13.17,24.39-6,38,5.12-1.47,10.06-3.26,15.16-4.26,7-1.37,15.35,3,16.46,8.07a18.21,18.21,0,0,0,1.85,5.1c1.55,2.68,3.91,5,5,7.79a54.53,54.53,0,0,1,3.3,12.17,10.07,10.07,0,0,1-1.3,6.73c-1.76,2.53-2.19,4.53-.74,7.24.88,1.66,1.08,3.67,1.81,5.43a42.37,42.37,0,0,0,2.37,4.25l1.4-.15q3.6-10.79,7.19-21.58c.56-1.67.67-3.92,1.83-4.87,4.39-3.6,5.06-8.65,5.2-13.51.31-10.23,3.6-19.62,6.72-29.15a58.63,58.63,0,0,0,3-14.61c.53-9,2.22-17.52,6.76-25.37.76-1.31,1.75-2.48,3.09-4.34l1.38,3.41,4.33-1.05ZM755.35-334.84c.29,3,.51,5.2.77,7.88C760.5-328.82,760.3-330.72,755.35-334.84Z" transform="translate(-4.91 515.63)"/><text class="cls-2" transform="translate(5.91 271.39)"><tspan class="cls-3">U</tspan><tspan x="91.31" y="0">itblin</tspan><tspan class="cls-4" x="469.28" y="0">k</tspan><tspan x="531.61" y="0">er</tspan><tspan class="cls-5" x="660.8" y="0">s</tspan></text><polygon points="810.38 9.27 817.87 24.43 834.61 26.87 822.49 38.67 825.35 55.35 810.38 47.48 795.41 55.35 798.27 38.67 786.15 26.87 802.89 24.43 810.38 9.27"/><polygon points="853.42 0 859.11 11.53 871.84 13.38 862.63 22.36 864.8 35.03 853.42 29.05 842.03 35.03 844.21 22.36 835 13.38 847.73 11.53 853.42 0"/><polygon points="852.12 40 856.27 48.43 865.57 49.78 858.84 56.33 860.43 65.59 852.12 61.22 843.8 65.59 845.39 56.33 838.66 49.78 847.96 48.43 852.12 40"/><polygon points="816.21 1067.35 824.11 1088.58 846.08 1094.12 828.33 1108.18 829.85 1130.78 810.99 1118.25 789.96 1126.69 796.05 1104.87 781.53 1087.48 804.17 1086.54 816.21 1067.35"/><polygon points="874.81 1060.9 880.81 1077.04 897.51 1081.24 884.02 1091.94 885.18 1109.12 870.84 1099.6 854.85 1106.01 859.48 1089.42 848.45 1076.2 865.65 1075.48 874.81 1060.9"/><polygon points="867.6 1114.01 871.99 1125.8 884.19 1128.87 874.33 1136.68 875.18 1149.23 864.7 1142.27 853.03 1146.96 856.41 1134.84 848.35 1125.19 860.91 1124.66 867.6 1114.01"/><path class="cls-1" d="M57.1,79.81l-.61.87,3.75,5.58-6.44-.87-.46,1.08,3.29,2.6-3.35,1c1.55,2.84,3.53,5.16,4.09,7.77,1.18,5.44,1.17,11.13,5.38,15.59,1,1,1,3,1.2,4.62.93,9.38,1.39,18.83,2.75,28.15,1,6.91,3.15,13.66,4.88,20.85-4.91,1-3.79,4-2.87,8,2.3,9.89,5.44,19.77,3.81,30.18-2.53,16.18-.94,32.39.88,48.4,1.63,14.45,5.32,28.67,8.13,43,.13.68.38,1.79.77,1.88,3.35.78,2.75,3.53,2.75,5.7,0,5.3,0,10.62-.5,15.89-1.77,18.72-2.09,37.37,1.61,55.94,1.91,9.55,7.11,16.35,16.08,20,5.71,2.33,11.71,3.92,17.39,6.29,8.53,3.57,17.57,6.51,25.11,11.61,7.28,4.92,9.17,5.9,14.7-.71.13-.17.48-.15.72-.21A37.14,37.14,0,0,1,169,430.51c.66,3.09,2.36,6.05,6.08,6.06,3.94,0,5.39-3.27,5.53-6.33a75.46,75.46,0,0,0-.69-15.69c-1-6.22-3.11-12.26-4.47-18.44-1.67-7.63-1.77-7.83-9.75-7.51-.4-3.16-2.07-4.4-5.45-3.67-1.1.24-2.55-1.07-3.81-1.74-2.17-1.14-4.26-2.47-6.49-3.48-3.34-1.51-7-2.48-10.14-4.29-6.71-3.83-13.36-7.58-21.48-7.06a5.59,5.59,0,0,1-2-.64c-1.22-18.86.72-35.62,5.11-42.12,3.4,3.24,6.46,6.56,10.3,9.15,9.7,6.53,18.85,13.92,26.4,22.86,11.6,13.73,31.54,9.62,38.32-6.24,1.75-4.1,3.65-8.13,6-13.32,2.27,3.4,3.8,5.66,5.31,7.94,2.25,3.41,5.3,5.23,9.4,4,3.79-1.13,4.35-4.46,4.53-7.81a23.09,23.09,0,0,0-6.77-18.08c-2.36-2.42-4-4.9-4.39-8.72-.84-9.08-12.38-14.74-20.31-10.12-7.6,4.42-15.73,8.49-18.5,18-.15.51-.71.89-1.52,1.87l-14.45-18.21,4.47-3.09-9.33-3.54c-1.21-.46-2.95-.58-3.53-1.46-4-6-8.45-11.76-11.33-18.25-2.63-5.92-2.9-12.86-5.23-19-4.81-12.62-.14-23.76,5.79-34,4.8-8.29,10.27-16.29,12.63-25.53,1.81-7.11,1.51-14.77,2.12-22.18a2.07,2.07,0,0,0-.45-1.23c-2.34-3.05-.48-5.25,1.12-7.9a23.22,23.22,0,0,0,3.21-8.73c.66-5.17.41-10.45.77-15.67.48-7,1.17-14.08,1.8-21.12a4.07,4.07,0,0,1,.54-2c4.16-5.49,8.43-10.91,12.59-16.4,1.83-2.42,3.49-4.95,5.23-7.43L174.52,98l-6.68,6.46a61.86,61.86,0,0,1,4.81-9.3c1.46-2.56.63-5.11-2-5.57-3.78-.66-7.84-.64-10.38,3.46A43.82,43.82,0,0,1,156,98.62c-5.38,6.19-8,6.45-14.36,1.43-2-1.54-3.71-2.19-5.72.47,11.44,11.5,13.17,24.38,6,38-5.12-1.47-10.06-3.26-15.15-4.25-7-1.38-15.36,3-16.47,8.06a18,18,0,0,1-1.85,5.11c-1.55,2.68-3.9,5-5,7.78a55.7,55.7,0,0,0-3.3,12.18,10.11,10.11,0,0,0,1.31,6.72c1.75,2.53,2.19,4.53.74,7.24-.89,1.66-1.08,3.67-1.82,5.43A38.47,38.47,0,0,1,98,191l-1.41-.14Q93,180.08,89.37,169.3c-.55-1.67-.66-3.93-1.82-4.88-4.39-3.59-5.06-8.64-5.21-13.5-.31-10.24-3.6-19.62-6.72-29.16a59,59,0,0,1-3-14.6c-.53-9-2.23-17.53-6.76-25.37-.76-1.31-1.76-2.48-3.09-4.34l-1.39,3.41Z" transform="translate(-4.91 515.63)"/><path class="cls-1" d="M57.1,79.81l4.32,1,1.39-3.41c1.33,1.86,2.33,3,3.09,4.34,4.53,7.84,6.23,16.38,6.76,25.37a59,59,0,0,0,3,14.6c3.12,9.54,6.41,18.92,6.72,29.16.15,4.86.82,9.91,5.21,13.5,1.16,1,1.27,3.21,1.82,4.88q3.61,10.78,7.19,21.58L98,191a38.47,38.47,0,0,0,2.36-4.25c.74-1.76.93-3.77,1.82-5.43,1.45-2.71,1-4.71-.74-7.24a10.11,10.11,0,0,1-1.31-6.72,55.7,55.7,0,0,1,3.3-12.18c1.14-2.81,3.49-5.1,5-7.78a18,18,0,0,0,1.85-5.11c1.11-5,9.45-9.44,16.47-8.06,5.09,1,10,2.78,15.15,4.25,7.13-13.6,5.4-26.48-6-38,2-2.66,3.77-2,5.72-.47,6.38,5,9,4.76,14.36-1.43a43.82,43.82,0,0,0,4.35-5.56c2.54-4.1,6.6-4.12,10.38-3.46,2.6.46,3.43,3,2,5.57a61.86,61.86,0,0,0-4.81,9.3L174.52,98l1.63,1.38c-1.74,2.48-3.4,5-5.23,7.43-4.16,5.49-8.43,10.91-12.59,16.4a4.07,4.07,0,0,0-.54,2c-.63,7-1.32,14.07-1.8,21.12-.36,5.22-.11,10.5-.77,15.67a23.22,23.22,0,0,1-3.21,8.73c-1.6,2.65-3.46,4.85-1.12,7.9a2.07,2.07,0,0,1,.45,1.23c-.61,7.41-.31,15.07-2.12,22.18-2.36,9.24-7.83,17.24-12.63,25.53-5.93,10.23-10.6,21.37-5.79,34,2.33,6.11,2.6,13.05,5.23,19,2.88,6.49,7.34,12.29,11.33,18.25.58.88,2.32,1,3.53,1.46l9.33,3.54-4.47,3.09,14.45,18.21c.81-1,1.37-1.36,1.52-1.87,2.77-9.5,10.9-13.57,18.5-18,7.93-4.62,19.47,1,20.31,10.12.35,3.82,2,6.3,4.39,8.72a23.09,23.09,0,0,1,6.77,18.08c-.18,3.35-.74,6.68-4.53,7.81-4.1,1.21-7.15-.61-9.4-4-1.51-2.28-3-4.54-5.31-7.94-2.34,5.19-4.24,9.22-6,13.32-6.78,15.86-26.72,20-38.32,6.24-7.55-8.94-16.7-16.33-26.4-22.86-3.84-2.59-6.9-5.91-10.3-9.15-4.39,6.5-6.33,23.26-5.11,42.12a5.59,5.59,0,0,0,2,.64c8.12-.52,14.77,3.23,21.48,7.06,3.16,1.81,6.8,2.78,10.14,4.29,2.23,1,4.32,2.34,6.49,3.48,1.26.67,2.71,2,3.81,1.74,3.38-.73,5.05.51,5.45,3.67,8-.32,8.08-.12,9.75,7.51,1.36,6.18,3.45,12.22,4.47,18.44a75.46,75.46,0,0,1,.69,15.69c-.14,3.06-1.59,6.35-5.53,6.33-3.72,0-5.42-3-6.08-6.06A37.14,37.14,0,0,0,160.16,413c-.24.06-.59,0-.72.21-5.53,6.61-7.42,5.63-14.7.71-7.54-5.1-16.58-8-25.11-11.61-5.68-2.37-11.68-4-17.39-6.29-9-3.67-14.17-10.47-16.08-20-3.7-18.57-3.38-37.22-1.61-55.94.5-5.27.51-10.59.5-15.89,0-2.17.6-4.92-2.75-5.7-.39-.09-.64-1.2-.77-1.88-2.81-14.31-6.5-28.53-8.13-43-1.82-16-3.41-32.22-.88-48.4C74.15,194.83,71,185,68.71,175.06c-.92-3.95-2-6.95,2.87-8-1.73-7.19-3.87-13.94-4.88-20.85-1.36-9.32-1.82-18.77-2.75-28.15-.16-1.59-.24-3.61-1.2-4.62-4.21-4.46-4.2-10.15-5.38-15.59-.56-2.61-2.54-4.93-4.09-7.77l3.35-1-3.29-2.6.46-1.08,6.44.87-3.75-5.58ZM125.53,193.7c.26-2.69.47-4.91.76-7.88C121.34,189.94,121.14,191.83,125.53,193.7Z" transform="translate(-4.91 515.63)"/><text class="cls-6" transform="translate(172.54 792.04)"><tspan class="cls-3">U</tspan><tspan x="91.31" y="0">itblin</tspan><tspan class="cls-4" x="469.28" y="0">k</tspan><tspan x="531.61" y="0">er</tspan><tspan class="cls-5" x="660.8" y="0">s</tspan></text><text class="cls-2" transform="translate(85.68 1209.7)"><tspan class="cls-3">U</tspan><tspan x="91.31" y="0">itblin</tspan><tspan class="cls-4" x="469.28" y="0">k</tspan><tspan x="531.61" y="0">er</tspan><tspan class="cls-5" x="660.8" y="0">s</tspan></text><polygon class="cls-1" points="61.45 529.92 53.97 545.09 37.23 547.52 49.34 559.33 46.48 576 61.45 568.13 76.43 576 73.57 559.33 85.68 547.52 68.94 545.09 61.45 529.92"/><polygon class="cls-1" points="18.42 520.65 12.73 532.19 0 534.04 9.21 543.01 7.04 555.69 18.42 549.7 29.8 555.69 27.63 543.01 36.84 534.04 24.11 532.19 18.42 520.65"/><polygon class="cls-1" points="19.72 560.66 15.56 569.08 6.26 570.43 12.99 576.99 11.4 586.25 19.72 581.88 28.03 586.25 26.45 576.99 33.17 570.43 23.88 569.08 19.72 560.66"/></svg>