<svg id="Laag_1" data-name="Laag 1" xmlns="http://www.w3.org/2000/svg" viewBox="0 0 302.2 64.8"><defs><style>.cls-1{fill:#FFF;}</style></defs><path class="cls-1" d="M441.77,218.81l-.07.28.79,1.59-.29.5-.43.36-.07.29.72.86.07.29-.29.51-.57.07.57.72.08.65.93.5-.29,1.08.15,1.8-.36.36V230l-.79.72-.22.5.5.94.72.79-.64-.07v.5l.21.22.07.5-.21.5v.58l-.58.58-.07.36-.29.36-.14.57.36.51-.58.72.22.5-.22.43.36.43-.14.51-.65.36v.36l-.58,1.51v.5l-.64.87.21.57-.79,1.52.22.28.57.15.07.36-.21.5.07.36-.22.51.08.57.28.43-.43.36-.14.29.14.51-.57.43-.15.57-.36.29.87.29v.65l-.51.65v1.36l-.29,1.3-.43.36-.29-.07-.14-.22.36-.86-.5.14-.29.51.07.86.72.29.22.5-.08.65-.57.22-.22.21.15.87-.44.36.08.36.5-.29.36.14.07.51-.65.64-.07.29-.57.79-.08.29.22.58.43.43-.29.58.08.28-.44.44.65.64-.07.29.22.87-.08,1,.44.94.28-.07.8-.65.93-.07.87-.51h-.58l-.22-.14.08-.29.72-.36-.22-.79.5-.58.58.44.29.07-.51-.65.08-.58.5-.28.5-.87-.21-.72.79-.21.94-1.16-.44-.72.08-.28.64-.51-.07-.29.22-.5.5-.07.15-.51-.22-.43.14-.29-.07-.64.94-.15.5-.43-.21-.14-.22.14h-.36l-.22-.22.08-.28.72-.44-.08-.36.22-.5.72-.65v-.29l.22-.43v-.5l.36-.87.07-.64.29-.51.28-.14-.07-.43.58-1.59.36-.36.21-.57-.21-.87.29-.57.21-.15v-.72l-.29-.43.08-.58.57-.07.07-1.15-.57-.5.72-2.6-.22-.64.79-.87.08-1.22-.22-.51.14-.72-.14-1.72.5-.44.08-.86.43-1.08v-.86l-.15-.29.72-2.23.65-.8.87-.64,1.08.21.5-.07.5-.29.65-.07.29.14.36.44.22.07.43.65.43.28.29,1.16-.22.57-.36.29.15.5-.51.29-.29.43.51.36-.07.36-.22.22.07.29.43.36-.07.29.51.79-.22,1.15.22.36V237l.21.43-.21.87.21.5-.14.22-.65.14-.07.29H458l.44.29v.79l-.36.43-.15.86-.21.44h-.87l-.43.21.07.29.22.14.36-.14.14-.29.72-.07.43.72-.72,2.74.15.64-.65.29-.07.29.43,1.37-.07.36-.43.36-.15.29.07.36-.5.14v.36l.36.14.22-.57.43.29-.07.5-.51.22-.29.43-.21,1.22.14.22H457l.36.86-.65,1.23.14.28v1.23l-.5.5.43.72-.14.65.21.43-.29.51.08.36-.22.57.5,1.66-.5.14-.14.22.21.43-.14.65-.29.5-.14.87.43.36.07.28-.14.22-.58.29-.14.21.14.58-.14.29.86.72-.5.65v.57l-.51.43v.29h.87l.14.22-1.58.36-.65,1.08.21.21.22-.21.14-.51.22-.14.58.22v.57l-.8.51.08.93h.36l.28-.72.36-.29h.36l.22.22-.14.65-.51.29-.07.86.36.43v.22l-.22.14-.43-.29-.29.36-.72.22-.21.22v.57l-.87.15-.43.28.15.29.28.15,1.16-.36.07.57L454,277l-.57.72-.29.07-1.87-.21-.44-.29.36-.58-.21-.14-.36.36-.72-.72.21-.5-1.08-.44.08-.93-.36-.36v-.36l-.22-.58.22-.43-.51-.36.22-1-.15-.21.29-.44-.21-.5V268.2l-.29-.43.43-1.8-.14-.51.21-.79.22-.14v-.36l.21-.58-.57-.14.21-1.44-.14-1,.36-.07.14-.22-.07-.58-.29-.14.22-.65-.29-.65.15-.21-.15-.79.36-.36.22-.58v-.58l-.29-.57-.22-.15.36-.57v-.29l-.43-.22-.21.15-.87.07-.21.14.36.58-.15.58-.65.5v.5l-.5,1.44v1.23l-.22.57-1.08.58.08.43-.22.43-.36,1.8-.79.36-.43.8-.44.28-.14.65-.94,1.37-.5.22.22.64-.72.36v.51l-1,.5-.29.43V270l-1.37.72-.29-.22-.28.51-1.73.14-.94-.5-1-.08-.5-.28-.58.14-.28-.07-.51-1-.65-.22-1.15-1.29.29-.65-.58.29-.57-.58v-.29l.21-.43-.5-.21-.43-1.23.14-.21-.29-.44-.14-.57.07-.72-.43-.51.14-.14.51.07-.07-.36-.51-.29.22-.79-.58-.93.22-.72.43-.36-.65-.58.07-.79-.28-.58V256l.21-.51v-1.72l.15-.44.5-.28-.5-.44.14-.28.43-.29-.14-.22-.36-.07-.15-.22.65-.57-.14-.29.21-1-.14-.21-.43-.22.5-2.09.22-.43-.29-.79.07-.22.58-.29.14-.72V243.5l.36-.36-.36-.57.36-.87-.07-1.37.36-1.44-.14-1.22.5-.29-.29-.72.29-.57-.07-.36.21-.72-.21-1.08.79-.29v-.36l-.36-.72V232l.72-1.44.14-1.22.22-.22.36-1.44-.22-.57.44-1.16-.08-.36.72-1,.15-1.08.21-.51v-.93l.58-.65.14-.79-.28-.58.43-.36V219l.5-.93.87-.22.86-.94.94-.21h1.36l1.16.86Zm-12.24,46.51-.07-.29-.36-.43.07.29Zm1.59,1h.21l.15-.15-.22-.07Zm.21,1.94.15.22.14-.22Zm.43-.72h.29l.07-.29-.14-.14Zm3.32-12.17.28-.14.08-.36-.22.14Zm.07-5,.14.22.36-.07-.14-.22Zm.57-4.68.22.29h.22v-.36l-.29-.14Zm.8,3,.07-.36-.15-.08-.07.22Zm1,1.44v.28l.51.15v-.43Zm.8-1.8-.15-.15-.29-.07v.22l.22.21Zm2.59-29.16.36-.08-.22-.07Zm1.51,45-.14-.29-.08.21ZM448,252.5v.29l.15.14.36-.21-.22-.29Zm.51,1.51h.36l.29-.14.07-.29-.36-.07-.51.22Zm2.09,21.1v-.22l-.36-.07v.29Zm4-20.23.21.07h.8l-.08-.36-.21-.14-.58.14Zm0,10.58.07.22h.5l-.07-.22Zm.07-6.19.29.07h.29l.43-.29-.07-.21H455Zm.72-9.36-.07-.22-.15-.21h-.36l-.07.21.36.29Zm-.5,13.25.07.14.36.07.21-.28-.07-.22H455Zm.14-6.27.22.15.14.21h.36l.07-.28-.5-.22Zm.72,3.24L456,260l-.36-.07Zm.72-16.63.07.22.65.29.14-.58-.43-.22Zm1-8.71v-.29l-.29-.07-.07.22.14.21Z" transform="translate(-427.52 -216.72)"/><path class="cls-1" d="M472.81,245.88l-.08-.29.22-.07.22.21.07.58-.36.58-.65-.36.07.28.72.58v1.08l-.65.86.08.29.5.36-.58,1.37-.64.07.43.43-.15.8-.43.5.51.29-.51.65-.21.5-.94,1.08.58.72-.58.58-.36-.08-.72.87V258l.22.15.5-.36.36-.07.07.28-.79,1.08.07.36.58.29.14.29-.07.29-.65.07-.29.22-.21,1.22.79-.29.29.15-.22.5-.5.36-.79.86-.29-.14-.22.07-.29.58h.29l.43-.36.29.07.15.29v.5l-.22.51.65.07.14.21-.14.58-.43.22-.22.5.58-.22.07.22-.29.43.07.29-.14.72.79,1.08-.79.79.21.36.29-.14.29-.43.29-.15v-.36l1.22-.21,1.08-.51.22-.57,1.15-1.08.29-.51.29-.07,1.22-1.15.43-.22.22-.5.43-.36.22-.51.5-.28.5.07-.07-.58.65-.86.86-.72.72-.87L481,260v-.86l.51-1,.86.36-.29-.36.72-1.37.51-.14.57-.72.15-.44.29-.07.14-.21v-.58l.86-.29.22-.21-.07-.22.36-1.15.5-.15.72-.93.29-.07.72-1.52.65-.14.36-.43.07-.58.36-.65.58-.72.07-.36.21-.21.58.65.07-.94,1.15-.07.22.36-.36-.15-.22.36.15.58.5.14-.14.15.07.5-.43-.43-.29.07-.29-.14-.29-.43-.57.93v1.3l-.22.5-.29.15-.43-.51-.43.51-.58,1.08v.86l-.36.79-.5.36-.29-.07-.5-.5h-.36l.07.43.29.43-.07.29-.72.93-.51.15.43.65-.36.5-.5.22-.5.79-.8.79-.07.36L483,260l-.65-.07-.29,1.15-.57.36-.87,1.08-.43.22-.22-.15v-.36l-.28.07v.8l-.15.57-.65,1-.28.07-.58.72-.5.22-.29-.58-.43.22-.08.57.15.51-.79.43-.8.86-.43.29-.36.51h-.57l-.36.28.43.51-.07.29-1.3,1.22L472,271l-.43.43-.21.43-.44-.22-.28.15-.58,1-.29.14-.43-.22-.86.22-.22-.22-.14-.43-.22-.21-.5-.08-.65.44-.72-.22-.22-.5-.65-.22-.36-.43-.57-.36-1.15-1.15.07-.36-.36-1.66.07-.58-.58-.5.44-.43-.29-1.08.29-1.08-.51-.79.51-1-.22-.51.07-.57.36-.43-.07-.58.22-.14-.22-.8.14-.28.29-.15-.07-1.44.36-.43-.07-.36.21-.86.58-.87-.07-.57.43-1.23.36-.43.86-2.38-.07-.21.43-.29.44-1.08.36-.36.57-1.73.58-.86.5-1.59.58-.21.36-.79.29-.15h.79l.57-.14.29.14.22.51.65.14.14,1H473l.22.14-.22.79-.22-.14-.14.22Zm-6.56,20.88.15.21.21.08.36-.8h-.28Zm1.08-.36.15.29V267l-.51.65-.28.07-.08.36-.28.22v.22l.43-.29.5.14.22.58.29.21.21-.21v-.29l-.43-.79.5-1.15V266l.29-.51-.57.15Zm-.28-5.26h.36l.14-.29Zm1.72-2.45-.07-.21h-.29l-.5.43.58.14ZM468.2,262l.14.21h.29l.22-.21-.51-.22Zm.29-1.66h.21l.15-.14-.22-.15Zm0,8.35v.43l.07.29h.21l.22-.65-.14-.28Zm.14-1.65v.28l.29.08L469,267Zm.07,3L469,270l-.07-.29-.15-.07Zm.07-13.18.29-.14v-.5l-.29.36Zm1.16,6.63-.08.21-.07.8-.21-.08-.08-.57-.14-.15.14-.21ZM476,238h-2l-.24.08-.22.21-.5.08-.94.64-.29.08-.14-.44.07-.28-1.15-.22-.5-.36-.29-.43-.29-.15-.65-.72-.36.08-.29-.15.15-.57-.07-.65-.58-.36-.14-.29.64-.72-.28-.07-.36-.94.64-1.22-.21-.51.72-.72-.07-.43.28-.07.65-1,.51.15.79-.22h1.73l.57-.29.94.15.79.57.94.22.57-.07.29.14.36.36.58.22.07.28-.36.44.36.36.14,1.08.51.57.07.58-.65.29-.14.21.14.51.5.43-.14.29-.86.28-.15.94-.43.36v.5l-.36.15m-6.14,11.9v-.57l-.28-.08.07.51Zm.08,3.39.36-.08.14-.28h-.29Zm.07.72v.28l.29.44.28-.58-.28-.22Zm.65.28.28.15.15-.15-.22-.14Zm1-5.18.22-.14.22-.44-.36-.28-.15.57Zm15.63,6.05-.15.29-.36.21h-.28l-.15-.14.72-.43Zm1.87-2.59v-.36l.22-.44.21.08.07.28-.14.29Zm.36-2.45.14-.29-.14-.29-.14.29Zm1.73-.79-.07.28-.58-.14.5-.36Z" transform="translate(-427.52 -216.72)"/><path class="cls-1" d="M497.43,227.88l.36-.07.65.07.57.5.07.94.51,1-.43.57.14.29-.07.5-.29.44.36.57-.29.58.22.36h1l.93.21.43-.21h1.52l.36.21.36-.28.57-.22.8.29.5-.22h.58l.64.22.65-.51.94.08.5.21.65-.36.29.07.5.8.65.5-.07.22-.44.28-.64-.07-.22-.14-1.8.72-1.29-.15-.44.51-.86-.22-.94.58-.5-.36-.29-.58-.79.15v.57l-.65.36-.36-.07-.22-.22-.5-.07-1,.36-.57-.29-.51.22-.07.36.14.5-.35.8.07.21-.51,1.44-.5.43.22,1.88-.22.14-.86-.07-.51.21.07.22.65.07.15.58-.36.43-.29.07.5,1.08-.36.65.22.65-1.15.65.14.28.79-.07-.5,2,.21.43-.43.29.29.5-.22.51-.72.86-.07.29.22.5.57-.07v.29l-.36.57-.21,1,.14.51-.5.57.29.72-.15.58.29.57-.58.44.22.5-.22.5-.36.08-.07,1.15.15.65-.51.14-.5-.14-.15.21.08.22.5.14.22.22-.08.29-.5.21-.65.07.58,1-.58.72.43.36-.14,1.15-.87.15-.14.14.79.79.29.51.07.5-.36.29-.57,1,.21.21.58.22h.5l.44-.5.36.14,1.15-.72.57-.22,1.3-1.22v-.29l.58-.36.71.15.15-.29-.72-.15.5-.72.94-.79.36.07.43-.21.07-.65,1.16-.5.21-.51.94-.72.43-.93,1.73-1.59.28-.43.65-.14.36-.29V257l.72-.43.36-.44.51-.21v-.79l.29-.36.5-.22v-.36l.65-.72v-.65l.29-.14.64.14.15-.14-.15-.58.15-.21.5-.22.29-.43-.29-.51.22-.43.65.22.5-.22.36-.36v-.72l.86.29.08.58.28.36-.21.14-.29-.14-.22.14-.21.72-1.23.94.15.5L512,253l-.86.28-.14,1.08-.72.51-.36.5-.44.29-1.29,2-.43.21-.15.36-.21.15V258l-.36.44-.08.5-.72.94-.43.07-1.73,2.23-.28.07-.94.79-.29.08-.14.28.07.44L500.24,266l-.65-.07-.36.36-.07.5-.65.29-.29.5-.43.36-.36.07-.14.51-1.23,1.29-1.58.72-1,.65-.58.07-.29-.14-.21.22-.22.79-.79.07-.79.29-.72-.58h-.29l-.86-.65-.87.15-.14-.22-.07-.93-.58.07-.21-.15L487,270l.43-.22v.29l.43-.14-.64-.36-.08-.29.15-.58.36-.36-.08-.14h-.64l-.43-.29.14-.58-.22-.57.15-.36-.36-.51.29-.43.07-.57.57-.36-.64-.51h-.22l-.07-.29.36-.72-.44-1.51.15-.21.58-.29.28-1.23.58-.07-.58-1.29.08-.29-.44-.94.65-1.8v-1.29l.72-1.8v-.94l-.14-.58.43-.72.22-1.08-.22-.64.72-1.37-.22-.58.58-.93v-.87l-.22-.57.44-.15-.15-.36-.36-.36.43-1.58.29-.07.36-.36-.14-.22-.51-.07-.07-.22.72-.36-.29-.65.65-.86V238l.15-.22-.44-.43-.36-.07-.43-.43-.65.43-.43-.29-.36.29v-.72l-.14-.15-1.23.51-.43.36-.22-.51-.28-.14.07.5-.22.15-.79-.22-.36.07-.5-.28-.44,1-1.29-.57-.65-.79v-.29l1.08-.22.22-.21-.07-.36.57.28,1-.21.43-.36.51.07,1.08-.22.57.51h.65l.5-.43,1.8-.22h1.66l.36-.36-.43-.43.21-.22.36-.07.22-.22-.65-.57.43-.51.22-.79-.14-.93.35-.72.22-1.66.51-.29.21-.57.72-.58,2.45.22Zm-3.53,30.74.15-.21-.08-.36h-.28l-.08.21Zm17.28-6.33v.07h.51v-.29h-.29Z" transform="translate(-427.52 -216.72)"/><path class="cls-1" d="M516.73,217.29v.36L518,218l1.66,1.3.65.86.07.65.5,1v.58l-.36.28.58.58-.07.86.28,1.73-.28.51v.28h.79l.14.29-.65.65-.14.58.07.28.72,1.08.07.58-.14.29-.65-.15-.29.22-.07.29.87.07.21.14-.43.8-.22,1.36.29.36-.36.58-.29,1.22.36.44-.28.5.14.58.58,1.08-.08.5-.28.22-.44-.36-.36.28.36.58-.36.79.08.51.21.14.43-.72.44.36-.29.43-.58.07.07.51-.5.79.43,1.37-.43,1.37-.29.36-1.22-.15-.15.51h.65v.5l-.79.5-.14.22.21.29,1.59-.51-.08-.72.22-.14h.65l.29-.65.79-.21.79-1.37.65.29.29-.08.14-.5,1.22-.58.44-.36.36.08.72-.29.43-.36.65-.07.43-.29.5.14,1.3.07.5.22.36-.36.22.07-.36.43.07.29.43.36.07.36.22.22,1.73.21.07.58.79.36.15,1.8-.15.58.36.36v.21l.22.22.21.57-.21.51.36.5-.15.22-.57.07-.15.22.65.36v.36l-.57.57.36.51.5-.29.22.5-.36,1.08.21.22,1.44-.22.51-.72.28-.14.58.36.29-.22.14-.57.79-.29.87-.58.57-.14.72-.65.51.14.72-.57.57-.15.94-.57,2.09-.51v.51l.57.5-1,.29L545,250l-1,.36-.86.87-1.15.07-.36.36h-.29l-.79.65-.94.07-.94.79-.5-.14-.22.14-.28.58-1.08.21-.58-.07v.5h-.36l-1.51,1.16-.22.43-.65.5.22,1.51-.79.08-.15.5.15.14-1.44,2.52.21,1.23-.21.29h-.36l-.51-.22-.21.22v.5l-.58,1.58h-.79v.87l-.22.14h-.79l-.29.15.08.72-.65.36-.07.5-.22.22-.79.21-.43,1.3-.29-.15-.87.22-.07.5-.21.15-.58.07-.79.58h-.29l-.43.64-.43.29-.65-.14-.51-.29-.21.43-.72.29-.43-.14-.29.57-.87-.21-1.22.64-.22-.14-.07-.29.36-.43.29.07.22-.14.07-.58L517,271l-.57-.15-.29.79-.22.15-.64-.22v-.43l.72-.58.07-.21-.22-.07-1.08.28-.29-.07-.14-.21v-.36l.58-.44v-.28l-.44-.72-.14.21v.65l-.5.5-.87,1.73.51,1-1.44.72-.36.5-.29.08-.22-.51-.36-.29-2.37-.21-.22-.15-.07-.36.43-.43-.36-.43-.5-1-.08-.65.22-1-.14-.29.07-.79h.43l-.07-.87.21-.21-.5-.72.14-.29.51-.07.57.28.29-.07.36-.5-.07-.22-.79.15-.58-.15.15-.57-.22-.22-.14-.5.07-.22.57-.22-.5-.93.14-.94.36-.5-.07-.29.22-.43.5-.29.15-.22-.44-.5.08-.29-.36-.72.64-.57-.07-.36.22-.58-.51-.58.51-.64-.07-.94.43-.5-.07-.22.21-.43-.21-.58.43-.79-.07-.43.72-.87h-.58l-.14-.21.07-.29.29-.07.5.14v-.29l-.43-.57.5-1.08.07-.58-.14-1.22.22-.22.07-.65-.22-.57.65-1.66.5-.21-.28-1.44-.22-.22.65-1.51-.43-.58v-.36l.57-.57v-1.8l.22-.22.21-1.73.22-.43-.36-.58.36-.79.07-.57.36-.65-.36-.36-.07-.29.36-.58-.14-.5V229h.64l-.07-.29-.43-.43.07-1.44.22-.43-.15-.65.58-.58-.29-.43-.14-1.22.29-.43-.08-.29.15-.51-.15-.21.08-.87.21-.43-.21-2,.93-1.23,1.15-.36Zm-7.06,51.63.22.21.28-.14v-.22l-.21-.14-.22.07Zm4.61-2.31.07.29.07.51.29.07.29-.94-.07-.14h-.51Zm.21-1.51h.36v-.29Zm.29-2.09.29.15.22.21.07.51-.36.43.65-.14.5-.36.22-.8-.94-.28-.5.07Zm13-19.72h-.29l-.79.28-.29-.07-1.22.72-.36.36h-.29l-.36.43-.72.08-.14.79-.36.36-.58.07-.36.79-.57.22-.29.29v.64l-.58.36-.5,1.52-.22.21-.57.22-.22.21-.29.87.43.72-.14.29-.72.5v.65l-.5.36v.29l-.51.57.87.58.07.29-.36.36-.72.14V257l-.58,1.65.51.29.14.29-.07.29-.29.14-.86-.22.07.29.36.43.65.22-.72.5.5.22.14.29-.14.29-.22.07-.5-.22.22.87.43.21.14-.65,1.59-.28.5.14.58-.22.72-.86.57-.14.15-.51.28-.36.58-.07.36-.5.5-.36.58.21.22-.57,2.52-1.08.14-.65.29-.15.57.08.22-.51H528l1.51-1.15.07-.86-.29-.36.22-.29.65-.07.07-.51-.29-.72.22-.21.57-.08v-.57l.22-.51-.5-.57.57-1v-.36l-.43-1.08.22-.22h.57l-.5-1,.14-.36-.43-.36.14-.65-.43-.43-.5-1.16-.51-.21-.79.5Zm-.21,16.27v-.22L527,259h-.36l-.36.36-.93.29-.08.43-1.15.79-.65.15-.36-.07-.14.64h-.36l-.72.8-.58.28-.43-.21-.43.36v.43l-.58.5-.21.72-.51.36-.79-.72.07.58-.14.58.07.36-.72.36v.93l-1.22.15-.22.14-.07.29.5-.07.22.14.29,1.08-.51-.07-.14.29.07.21.58.15-.15-.29.29-.15,1,.58h.36l.58-.58.86-.21.86-.51.36.08.87-.87.57-.21.15-.51.65-.36.21-.5.79-.94v-.36l.58-.36h.29l-.29-.29.14-.21.72-.29.08-.29-.58-.07v-.5l.5-.36h.65l.22-.22-.58-.14-.14-.22.21-.5.51-.29-.07-.58.21-.21.43-.08Zm-10.88-9.72.22-.07.07-.22-.29.07Zm1.23-1.3.29-.07.07-.5L518,248Zm1.44-4.32H519l.14.22Zm.29-.93.28.14.29-.07-.07-.29-.29-.14-.29.07Zm9.43,15.4.07.29.22.51.21.07.07-.29-.36-.65Zm2.73-16.12-.28-.15.14-.21h.22l.07.14Zm.8,1.8v-.22l-.36-.07.07.21Z" transform="translate(-427.52 -216.72)"/><path class="cls-1" d="M556.83,216.93l.29.15,1.15.79.65.14.36.36.14.58,1,1.15.57.94.08.57.5.36.14.58-.35.58-.08.64.43,1-.07.36-.28.36-.08.58-.43.5-.07.51.5,1.08-.5.5-.07.65.21.79-.14.29-.43.36.07.5-.14.29-.73.36-.07.29.15.57.28.36-.14.65-.65.29v.65l-.79.5-.29,1.51-.21.15-.29-.07-.15.5-.43.5.15.72-.08.36-.72.58-.36.79-.43.36-.07.51-.43.28-1.37,2.52-.5.22-.58.79.36.51-.58.21-.14,1-.65.5v.8l-.72.5.07.72.22.5-.07.29-.58.22L551,252l-.65.14-.29.51.58.28.07.22-.15.22-.43.21v.65l-.65.86.22.51-.29.36.15.21.07.58-.15.22.15.21.57.15.15.21-.07.29-.51.36-.36,1.22.07.58-.21.14-1.15.15-.22.21.14.29.51.15.5-.51.65.22v.72l.58.5-.08.36-.5.29-.07-.29H549l.14.29.51.22-.07.72-.22-.15h-.86l-.44-.14-.64.43.21.29.72-.29.29.07.36.36-.22.51.87.57-.07.29-.58.5.29.44-.22.57.15.29.5-.14.14.57h-.5l-.29.43.43.15.15.36.5-.43.36.36-.65.64v.65l.15.07.72-.36.57.44v-.51l.8-.14,1.29-.58.29-.5.43-.36.58.29v-.8l.36-.43.29-.07.14-.43.79-.79.36-.94.79-.86.15-.58.86-.29.43-.43.08-.86.21-.51,1.23-1.87.5-1.08.72-.86.5-1,.08-.72.86-1.37.72-.07-.21-1.08.64-.87,1.08-1.94.36-.36.72-1.51v-.51l.58-.5.14-.65.58-.21.58.43.14.57-.29.8.15.72-.15.21-.79.29.07.29-.29.79-.5-.07-.29.72.07,1.08-.57.5.36.51-.08.36-.93.07v.5l-.36.65-.43.36-.08.36-.64.94-.29,1.08-.94.57.29.43v.36l-.5.29-.08.58-.28.43-.51.29-.29.79-.36.36-.21.58-.79.5.07.58-1.08.5-.22.86.15.29-.87,1.23-.65.14-.21.22-.15.57-.57.43v.36l-.22.51-.79.29-.36.86-.94.22-.72.79-1.36.57-.8.72-.5.08-.36-.15-.29.15-.57-.08-.29.15-.29.65-.94.07-.57-.43-.51.14v-.65l-.14-.14h-.72l-.22-.43.15-.22-.36-.36-.58-.07-.14-.87-.29-.43v-.29l-1.08-1.72v-.65l-.43-.65.14-.58-.07-.5-.5-.94.36-.57-.51-.51v-1.29l.15-.22-.29-.86.21-.58-.28-1.15.21-1.66.43-.36-.43-.93v-.72l.36-.58-.14-.57.65-.15.14-.21-.07-.29-.79-.29.14-.29.5-.29v-1.15l-.14-.57.29-.51-.07-.57.21-.51.29-.14.29-.94-.65-.21.58-1v-1.37l.5-.07.14-.15-.14-.28-.43-.36-.22-.65.79-.43-.21-1.44.14-.51.58.22.14-.22-.43-.86.58-.22.14-.21-.14-.8-.51-.93.58-.07.43-.44-.07-.36.36-.5-.15-.29-.28-.14v-.43l.72-.36v-.51l.5-1.37-.43-.43-.07-.43.64-.5.22-1.08-.22-.51.36-.57-.14-.44.65-1-.07-.36.36-.58-.36-.22-.08-.28.72-.15.15-.21L548,227v-.36l.65-.72-.21-.36.36-.57-.29-.51.5-1.44.43-.28.15-.58.57-.29.15-.21-.15-.22-.5-.22.22-.86.72-.79.14-.72-.07-.65,1.15-.94.58-.07.64.15.58-.29H554l.5.29.22-.51h.65l.93.29Zm-9.15,48.75-.21.07-.36.29.5.07.51-.29.14-.5-.29.07Zm-.14-1.08h.14v-.15h-.14Zm.79-8.43.36.22.36-.29.07-.29-.64.08Zm.36,2.24.29-.08.36-.28-.14-.22-.36-.14-.22.5Zm0,3.09.36-.07-.29-.22Zm1.8-1.65-.14.28-.36.15-.51-.43.51-.22Zm-.29-4.54.08.22-.08.21-.36-.07-.14-.29Zm0,17.35V273l-.5-.14.07-.29.51-.07Zm-.21-6.55v.43l-.22-.14v-.15Zm6-47.66-.14.14-1.08.36.22,1.22-.22.51.29.57-.29.44.29.21.07.29-.5.86.36.08.43.36-.65.64v.29l.43.58-.21,1.37-.29.43.43.93L555,228l-.58.79.36.44.15.5-.08.22-.43.36-.07.86-.22.43.22.58-.07.29-.22.14-.57-.07-.58.57.29.15.36-.15.57.15.15.21-.07.29-.51.22.07.5-.86.72.22.51-.08.28.58.51-.22,1,.29.5-.29.5v.72l-.43.08-.29.36.44.57.28.07.94-1.08.07-.36.87-.5.14-.65-.07-.57.93-1.08v-.29l.36-.58-.07-.57.29-.44.5-.14.08-.79.5-.43-.14-.58,1-3.17.37-.43-.22-.58v-.36l.43-.72-.29-1.36.36-.44-.36-.72-.29-1.29.22-.22.15-1.22-.44-.29-.14-.29.29-.5-.72-.79v-.29l-.87-.94h-.86Zm-2.3,17,.29.07-.07.43-.29-.21Z" transform="translate(-427.52 -216.72)"/><path class="cls-1" d="M571.8,245.88l-.07-.29.22-.07.21.21.08.58-.36.58-.65-.36.07.28.72.58v1.08l-.65.86.07.29.51.36-.58,1.37-.65.07.44.43-.15.8-.43.5.5.29-.5.65-.22.5-.93,1.08.57.72-.57.58-.36-.08-.72.87V258l.21.15.51-.36.36-.07.07.28-.79,1.08.07.36.58.29.14.29-.07.29-.65.07-.29.22-.21,1.22.79-.29.29.15-.22.5-.5.36-.8.86-.28-.14-.22.07-.29.58h.29l.43-.36.29.07.14.29v.5l-.21.51.65.07.14.21-.14.58-.44.22-.21.5.57-.22.08.22-.29.43.07.29-.14.72.79,1.08-.79.79.21.36.29-.14.29-.43.29-.15v-.36l1.22-.21,1.08-.51.22-.57,1.15-1.08.29-.51.28-.07,1.23-1.15.43-.22.22-.5.43-.36.21-.51.51-.28.5.07-.07-.58.65-.86.86-.72.72-.87L580,260v-.86l.51-1,.86.36-.29-.36.72-1.37.51-.14.57-.72.15-.44.28-.07.15-.21v-.58l.86-.29.22-.21-.07-.22.36-1.15.5-.15.72-.93.29-.07.72-1.52.65-.14.36-.43.07-.58.36-.65.57-.72.08-.36.21-.21.58.65.07-.94,1.15-.07.22.36-.36-.15-.22.36.15.58.5.14-.14.15.07.5-.43-.43-.29.07-.29-.14-.29-.43-.57.93v1.3l-.22.5-.29.15-.43-.51-.43.51-.58,1.08v.86l-.36.79-.5.36-.29-.07-.5-.5h-.36l.07.43.29.43-.08.29-.72.93-.5.15.43.65-.36.5-.5.22-.51.79-.79.79-.07.36L582,260l-.65-.07-.29,1.15-.58.36-.86,1.08-.43.22-.22-.15v-.36l-.29.07v.8l-.14.57-.65,1-.29.07-.57.72-.51.22-.28-.58-.44.22-.07.57.15.51-.8.43-.79.86-.43.29-.36.51h-.58l-.36.28.44.51-.08.29-1.29,1.22L571,271l-.43.43-.22.43-.43-.22-.29.15-.57,1-.29.14-.43-.22-.87.22-.21-.22-.15-.43-.21-.21-.51-.08-.64.44-.72-.22-.22-.5-.65-.22-.36-.43-.57-.36-1.16-1.15.08-.36-.36-1.66.07-.58-.58-.5.43-.43-.28-1.08.28-1.08-.5-.79.5-1-.21-.51.07-.57.36-.43-.07-.58.21-.14-.21-.8.14-.28.29-.15-.07-1.44.36-.43-.07-.36.21-.86.58-.87-.07-.57.43-1.23.36-.43.86-2.38-.07-.21.43-.29.43-1.08.36-.36.58-1.73.58-.86.5-1.59.58-.21.36-.79.28-.15h.8l.57-.14.29.14.22.51.64.14.15,1H572l.21.14-.21.79-.22-.14-.14.22Zm-7.41,19.51.36.07v-.29l-.22-.14Zm.86,1.37.15.21.21.08.36-.8h-.29Zm1.08-.36.15.29V267l-.51.65-.29.07-.07.36-.29.22v.22l.44-.29.5.14.22.58.28.21.22-.21v-.29l-.43-.79.5-1.15V266l.29-.51-.58.15Zm1.44-7.71-.07-.21h-.29l-.5.43.57.14ZM567.2,262l.14.21h.29l.21-.21-.5-.22Zm.28-1.66h.22l.14-.14-.21-.15Zm0,8.35v.43l.08.29h.21l.22-.65-.15-.28Zm.15-1.65v.28l.29.08L568,267Zm.07,3L568,270l-.07-.29-.15-.07Zm.07-13.18.29-.14v-.5l-.29.36Zm1.15,6.63-.07.21-.07.8-.22-.08-.07-.57-.14-.15.14-.21Zm8.5-37.15.29.14.36.36.57.22.08.28-.36.44.36.36.14,1.08.5.57.08.58-.65.29-.15.21.15.51.5.43-.14.29-.87.28-.14.94-.43.36v.5l-.36.15-.29-.51-.22.22-.57-.36-.22.22-.21.64-.29.08-.79-.29v.72l-.22.21-.5.08-.94.64-.29.08-.14-.44.07-.28-1.15-.22-.51-.36-.28-.43-.29-.15-.65-.72-.36.08-.29-.15.15-.57-.08-.65-.57-.36-.15-.29.65-.72-.29-.07-.36-.94.65-1.22-.21-.51.72-.72-.08-.43.29-.07.65-1,.5.15.8-.22h1.72l.58-.29.94.15.79.57.93.22ZM569,260.71l.28.14-.21.22-.15-.22Zm.28-8.06.36-.08.15-.28h-.29Zm.08.72v.28l.28.44.29-.58-.29-.22Zm.5-18.65-.22-.22.15-.21.21.21Zm0,16.85H570l-.07-.22Zm.14,2.08.29.15.15-.15-.22-.14Zm1-5.18.22-.14.21-.44-.36-.28-.14.57ZM575.48,235l.14.21-.07.87-.36.28-.22-.14-.07-.65.36-.5Zm1.29.28-.21.22h-.51l.07-.36.44-.07Zm-.43-.86.14.22-.07.14-.14-.14Zm2.52-1.22v.36l-.29-.15Zm7.78,21.31-.15.29-.36.21h-.29l-.14-.14.72-.43Zm1.87-2.59v-.36l.21-.44.22.08.07.28-.14.29Zm.36-2.45.14-.29-.14-.29-.15.29Zm1.73-.79-.08.28-.57-.14.5-.36Z" transform="translate(-427.52 -216.72)"/><path class="cls-1" d="M624.22,251.85l-.07.22h-.29l-.07-.22-.58.36-.14.58-1.08.36-.22.43-.43.22.14.14.94.15-.58.5-1.29,2.3-.65-.14-.07.29.14.36-.21.14-.58.94-.14.65-.65.72-.22.79-.5.21-.29.65-.72.15-.07.21.21,1.08-.86.72-.14.58-.87.57-.21.8-.44-.29-.36.36.36.65-.28.14-.65.94-.87.36-.28,1.15-.65.07-.22.14.29.51L610.18,271l-.5.21.07.58-.51.72-.28.07-.29.58h-.29l-.65.5-.07.72-.72.36-.86,1.58-.44.36-.64.94-.29.07-.29-.14.07-.22.43-.29-.21-.21-.72.5-.72-.5h-1l-.65-.29-.14-.5-1.08-.29v-.51l-.51-1.44-.21-.21-.58-.15v-.28l-.65-.58-.07-.22.36-.93-.21-.22.43-.57-.15-.22-.72-.36.36-.29.87.15.14-.15-.65-.57-.14-.29.14-.51-.36-.14-.07-.22.15-.21H599l.07-.29-.14-.79.57-.36-.29-.72.15-.22-.29-.21-.14-.58.57-.58v-.64l.79-.8-.07-.36-.43-.72.43-.72v-.57l.22-.15.14-.5-.43-.43.14-.51.58.15.43-.22-.65-.36-.07-.29.22-.36.29-.14-.22-.43.5-.58-.21-.86h.5l.22-.15-.43-.57.21-.51.36-.28v-.22l-.29-.36.65-.43v-.29l-.5-.07.07-.43.65-.08-.36-.72.14-.5h.58l.14-.22v-.93l.58-.15-.07-.57-.36-.94.28-.43.08-.58.5-.43-.5-.65.5-.93-.07-.58-.72-.5-1.59,1.29-.21.58-.36.36-.36.07-.36.87-.36.43.07.5-.72.43-.36.44.07.5-.14.22-.79.14.14.58-.36.36-.5.14.07.36-.43.58h-.58l.29.57v.29l-.36.5v.65l-.22.43.15.51-1,.29.36.57-.22.79-.43.44-.86,2.23-.29-.15-.36-.43-.29.15-.14.28.57.94-.21.22-.58-.29-.43.29-.15.5.22.5.29.08-.15.28-.43.29v.29l-.36.86.07.51-.28,1.37-.44.28-.14.94-.58.58v.64l.22.51-.94,1v.28l-.28.51-.22,1-.43.21-.72-.43h-.36l-.51.29-.57.07-.22.5-.36-.14.29-.5-.36-.72-.22.21-.14.43-.79-.14-.07-1-.36-.43v-.36l-.36-.43.07-.29-.29-.5v-.29l.36-.51-.22-.43v-.36l-.36-.5-.07-.51.72-.28-.57-.51.14-.29-.14-.93.57-.72-.14-.22-.07-.93.5-1-.07-.94.36-1.08-.51-.43v-.29l.87-.5-.36-.51V255l.65-.36-.08-.29-.5-.28.22-.51-.08-.57.22-.51.22-1.37-.29-.28.57-.44-.57-.79.14-.86.29-.58-.07-.93.29-.51-.15-.57.22-.65-.15-.36.51-.43-.43-.65.5-.51.07-2,.36-1-.07-1.51.79-.51,2.09-.28,1.08.28-.29.51.36.5v.36l.36.36.51.22.14.21-.07.29.21,1.15-.14.29.5.58v1.44l-.28.43.14.29.14,1.22-.5.36.29.58-.29.72,1,.07v.58l-.29.79-.65.5.15.15.64.07.22.14-.07.51-.29.43.07.21-.29.44.65.86-.14.94-.29.5.36.29.29.5.43.07.94-1,.21-.8.72-.79-.14-.72.57-.65-.07-.57.51-.43,1.15-1.66.21-.5v-.36l1.59-1.66.21-.58.72-1,.29-.08.29-.28-.07-.36.65-.51.28-.43.44-.22.86-.86.5-.29.51-.07.29.14.43-.14.5.14.51-.07.43.43.43-.36h.36l.5.22.08.5.93.15.22.21-.07.51.14.29.29.07.21.29-.36.36.36.5v.22l-.36.28.36.36.51.22.65,1.51-.22.87-.5.36-.08.36.51.07.07.21-.36.44.22.64-.29.72.07.36-1.66.72.08.36-.15.58,1.15.58-.07.28-1.22.44.21.14h.65l.29.14-.94,1.73.08.51-.36.28-.15.29.36.51-.65.57.29.65-.21.5-.08.72-.72.29-.36.36.22.15.58-.15.14.43-.22.22-.5.14.29.15.14.29-.43.72-.36.07-.14.21.28.72-1.15.15-.14.21.21.22h1.44l.15.22-.36.36-.65-.15-.58.07.08.29.86.51-.07.28-.43.36.14.29-.07.29h-.29l-1,.5-.79-.36-.22.15.08.21h.5l.5.36-.21.44.29.36,1.15.28-.15.29-1,.58.36.29-.15.21-1.44.29.07.36.22.14,1.37-.28.36.43-.22.21-.5.15-.65-.07-.5.14-.15.22-.36-.08-.21.15.07.21.29.15.36-.36.72.14.43.72.72.79,1.44-1.22.21-.5.51-.08.29-.79.72-.79.21-.58.72-.5,1-1.15.43-.94.51-.21.72-1.08.43-.36.07-.72.5-.22.36-.79.29-.15.43.22-.21-.36.29-.86.72-.44.07-.72.65-.43.36-.43v-.65l.5-.5v-.36l.22-.43.43-.15.14-.57.72-.87.22-.57.79-.72.14-.51.44-.14-.08-.51.65-1,.58-.15.36-.93.43-.44.07-.36.87-.93.14-.58.65-.21.07-.8.22-.5h.86l.22-.22-.22-.64.07-.29.72-.07.43-.29h.29l.22.21-.29.8.07.28.51-.14.21.07-.07.29-.29.14h-.65l-.21.15.43.65-.72.57-.22.94-.21.21-.65-.14-.43.79Zm-36.07,19,.14.22-.14.43-.43-.07-.15-.22.07-.21Zm13-.5.07-.36-.22-.15Zm.93,1.58.22-.14-.14-.29-.36-.07v.29Zm-.21-4.82H602l-.14-.15Zm4.32.21v.44l-.07.21-.44.15-.86-.29.14-.22.58-.29Zm-1.23,8.86.08.22.28-.08v-.21Zm.44-6.26h.28l.15.21h-.29Zm1.22-3.17-.14.07-.22-.14.14-.22Zm3.1-14.47-.15.28-.5.29-.22-.07-.29-.5.15-.22Zm-1-1.73.29.21.07-.28Zm.86-3.39.22.29-.07-.43h-.44l.08.22Zm.29-1.8-.22-.86.29-.36.36.43-.21.65Z" transform="translate(-427.52 -216.72)"/><path class="cls-1" d="M645.32,240.19l-.08.29-.28.43-.08.58.15.57-.58,1.15.07.29-1,.65.07.29-1.3,1.37.07.64-.72.51-.21.5-.43.15-.51.72.07.57-.93.36-.15.51-.57.21-.79,1-.29-.07-.43.21.28.51-.14.43h-.36l-.36-.22-.29.08-.14.21V253l-.15.21-.28.07-.29-.43-.15.29.15.29-.36.72-1.15.14-.44.29v.29l.36.36-.5.14h-.79l.29.65-.58.5-1.22.72-.94.08-.43.28.36.44.14.86.51.86.07.44.21.28.65,1.73-.21,1,.28.29.36-.43.29.14.29.72.14,1.22.22.58.65.79v.94l.14.36V269l.29.14.5-.28.44,1.36.64.51.51.93v.51l-.15.29.36.64v.65l.15.22h.43l.43.79v.65l.87.65-.29.64,1.08,1,.07.29-.14.36.5.58.58,1-.51.29.43.79-.07.22-.79.29-.79-.51.21-.43-.07-.21-.5.14-.58-.29.07-.36-.14-.21-.29-.08-.57-.93.14-.79h-.29l-.36.28L636,278l-.29-1,.14-.57-.36-1.23-.57-.07-.36-1.51-.44-.29.22-.94-.22-.14-.57.07v-.72l-.15-.29-.79-.36.36-.79.43-.36v-.5l-1,.29-.15-.22.15-.79.21-.22-.29-.29-.43.36-.29.08-.36-.44v-.93l-.21-.51.21-.43-1.08-.86.36-.58-.79-.79-.21-.65-.58-.72v-.29l.36-.43v-.36l-.22-.29-.36.44-.43-.51-.65-.21-.57.43.21.57-.14.22-.58.07-.36-.14-.28.14.14.29.43.36-.72.43-.14.22.07,1.22.14.29-.64.58-.37,1,.15.22.58.29-.22.43h-.65l-.36.36.43.5-.36.36-.57.29-.07.87-.72.5.21.79.36.36-.57,1-.8.79-.07.29-.36.36-.5.07L620,274l-.5.07-.5-.58-.36.15-.36.43-.51-.22-.07-.57.5-1.08-.14-.15-.65.15-.36-.58.43-.29.51-.07-.29-.57.36-.44-.14-.5-.51.14-.21-.07v-.21l.64-.36.58-.08-.29-.57.29-.65-.07-.29.29-.5-.51-.43.43-.72.15-.51-.07-.36.57-.43.51.22v.72l.14.21.29.07.21-.21-.28-.58.07-.29-.15-.21-.5-.29-.22.14-.57.08-.51-.22-.07-.29,1.08-.36.22-.21L619,263l.5-1.44-.22-.43-.07-.65.72-.28-.29-.51.58-1.29v-.51l-.14-.21.43-.65-.15-.79-.21-.22.36-1.51.72-.65.07-.36-.14-.86.07-.51.65-.57L622,251l.36-.43-.15-.29V249l.44-.72v-.36l.57-.5-.5-.43.21-.72.29-.07-.21-.44.14-.28.43-.29.07-.36.44-.65-.51-.65.15-.29.43-.36-.22-.5.29-.5-.14-.51.36-.5-.15-.51.29-.5.07-.5-.14-1.08.43-1,.07-.65-.29-.65.15-.21.5-.29-.07-.36.14-.51.36-.43-.21-.5.21-.51v-.79l.29-1.08.65-.65.07-2.59.43-.65.08-.57-.15-1.3.58-.5-.07-.36.21-.43-.36-.87.22-1.22.21-.43-.07-.29.58-.43-.07-.36.14-.15,2.3-.29.44.65.5.22.65.93.5.44-.14.28.07.58.36.36.07,1.15-.5.22-.29.36.07.36h.29l.65-.36.07.5-.36.43.07.29-.29.87h-.36l-.21.14.07.22.72-.36.36.43-.07.5-.29.43.29.44-.51.36.36.57-.21.79.07.29-.22.43-.79.22v.29l-.21.36-.44.29-.21.5.93-.14.36-.29-.07-.65.58-.14.36.36-.51,1.15-.43.36-.29.86-1.15.65.22.29.79-.29h.5l.15.29V237l-1.23.22-.07.28.15.22.93-.07.22.36-.07.21-.72.36-.08.58-.36.36v.29l.15.14-.36.43.36.8-.07.36-.58.43.07.57-.14.29.14.22.72.29.15-1.08h.36l.57-.29.36-.36.22-.51h.28l.44-.21.14-.72.29-.07.5.28.65-.86v-.36l.72-.29.07-.5,1-.29.43-.29h.65l.51.22.28-.51,1.23.22.21-.07.29-.72.29-.07.5.21v.51l.65.14.51.36H644l1.08.22-.15.5.44.5-.29.15h-.51l.29.43Zm-26.07,29h.36l.36-.29-.5-.29-.22-.43-.29.07-.07.22Zm1.58-7.92v.28l.22.08.22-.15Zm.22.86.07.22h.22v-.29Zm1.23-5.54-.36.07-.29.07-.36.43.14.15.87-.29.14-.22Zm-.72,1.15-.22.07-.07.22.29.07Zm2.73,7.05.29-.07.07-.21-.36-.08-.14.15Zm-.14,1.3.36-.07.14-.29-.21-.14-.29.07Zm.93-3.6h.36l.36-.5-.21-.36-.58.57Zm1.08,3.31.29.29-.14.22H626l-.14-.15Zm0-5.76.08.29.21.14.87-.21L627,260Zm.58,3.31.22.15v.29l-.29.14-.22-.07Zm.07-.14v-.36l.22-.14.29.07-.22.43ZM628,256v-.22l-.15-.21h-.5l-.15.29.22.14Zm14-15.19.29.14.5-.14-.57-.29-.36-1.15-.58-.15-1-.5-.44.72-.28.07-.65-.21-.22.57-.5.29-.36-.43-.43.36.07.5.29.36-.08.22-1.51-.07-.93.57-.15.29-.07,1.08-.94.43-.21.65-.65.36-.58.94.08,1.15-.58.5-.58.07-.07.58-.72.72.07.5-.93.72-.08.58-.57.5.14.29-.14.51.5.43-.64.93.64,1.44-.21.15-1.51-.07-.22.14-.07.29h1l.21.72h.36l.79-.72h.36l.72-1.08.51-.29.86-.94.43.08.22-.51.36-.36h.29l.65-1,.43-.36v-.57l1.44-.43-.22-.58.72-.5.87-1V247l.36-.36.57-.22,1.3-1,.21-.5-.43-.36.29-.29.65-.07.21-.43.08-.58.36-.36.5.07.07-.28h-.57v-.29l.43-.51.07-.79Zm-11.8,19.65h-.29l-.58.44.72.14.22-.22Zm-.37-16.63-.21.07-.14.22h.43Zm2.24-7.56.14.15v-.15Zm1.44,6.41-.36.14-.15.29.29.07.22-.14Z" transform="translate(-427.52 -216.72)"/><path class="cls-1" d="M647.2,261.42l1-.5.58.29h.5l-.14.64.14.22.51.14.21.22-.57.58-.58.07-.14.14.36.51-.8.5.15.22.93-.22.65.43-.14.29-.43.36-.58-.07-.86-.51-.15.22.22.43,1,.43.86-.21.22.14.07.36-.58.22-.21.21.28.8.29.14.22-.14.14-.58.22-.22.57.44-.21.57.21.15.8-.15,1,.51.58-.08.72-.57h.94l1.51-.94h.93l.22-.21-.14-.36.14-.29.65.21.43-.5.72-.29.79-1.08h.72l.07-.5.29-.43.29-.08,1-.93.5-.22.22-.65.65-.21.07-.58.65-.29.64-.93.22-.07,1.66-1.66.07-.65.5-.29,1.15-1.22.15-.5.93-.72-.21-.58.79-.65v-.57l.29-.44h.36l.21-.14v-.36l.22-.5.36-.36.65-.08-.22-.36.36-.79.29-.21.07-.44.51-1.08v-.28l.72-.08.21.44.22-.15.07-.36.5-.5.36.07.36.5-.21.22-.43.5v.29l.28.43-1.08.15-.14.57-.58.87.15.93-.22-.21-.57.14-.22.22-.07.79-.87.43.22.58-1.08,1.44-.07.86-.58-.21-.29.07-.36.43-.07.58-.65.79.22.65-.14.21h-.94l-.22.15.36.72-.14.28-.5-.21-.94.72v.57l-.14.15-.58.07-.65.5.15.65-1.08.51-.29.5-.51.29v.5l-.5.43-.65,1-.5.22-.22.29.07.28L661,266l-.08.58L660,267l-.14-.29.14-.51h-.58l-.64,1,.5.15-.14.21-.65.36-.36.43-.94.29-.36.51-.29.14L656,269l-.51.29-.36.43-.5-.14-.22.21v.36l-1.36,1-1.23-.07-1,.22-.28-.51H650l-.5.29-.07.29-.65.07-.15-.14v-.36l-.14-.22-.29-.07-.29.5-.5.22-.22-.15-.21-.57-.87-.15-.14-.21.14-.65h-.28l-.29.22-.51-.36-.21-.51.07-.36-.14-.21-.58-.15-.14-.21.07-.36-.15-.22-.79-.43.22-.58-.07-.21-.29-.15-.36.07-.15-1.94-.36-1.51.44-.29-.51-.58-.07-.28.14-.29.44-.36-.44-1.37.08-.43.21-.22-.07-.29.36-.5-.5-.65.14-.29.5-.36.08-.72.14-.21-.43-.65.14-.22.72-.07.15-.14-.29-.65.5-1,.65-.86v-.36l.36-.43-.14-.51.21-.21.58-.22-.15-.5,1.08-1.66.58-.14-.07-.58,1.08-1.37.36-.21.57.07.22-.15-.29-.5.36-.36.65-.14v-.58l.36-.43h.58l-.08-.65,1.16-1.44.86.07.22-.14-.08-.36.22-.58.29-.07.79-.58,1.22-.14.51-.29.5.15,1.59-.22.64.43h1l.58.15.79.64h.36l1.94,3.1v.29l-.5.07-.14.29.07.57.21.22.22.58-.22.43-.64.21.28.65-.79.51-.36.86-.57.14-.29,1-.65.22-.22.57-.5.29-.5-.21-.08.86-.21.14-.58-.07-.36.51-.86.43-.29.5-1.51.94-.72.21v.36l-.29.51-.29.07-.43-.43-.29.07-.57.58-.65.07L651,256.6h-.43l.14.5-.07.29-.5.22-.8,1.15.22.65-.65.21.07.29.44.22.07.21-.22.36-1.37-.36-.64.51M645,264.23h.22l.29-.29-.36.07Zm1.08,0v.22l.44.07.07-.29Zm.65-1.15.07-.36-.21-.22h-.22l-.21.22.28.36Zm0-1.23.22.15.29.07.21-.14-.5-.29Zm.58-2,.29-.07.14-.87-.29-.07-.36.22Zm.29,3.38h.28l.29-.07.07-.22-.21-.14-.29.14Zm.36-6.84.07.22.57.14.15-.14-.22-.22Zm.64,10.15.29-.21-.21-.22-.22.22Zm1.8-5.11-.21.22-.36-.07-.22-.29.22-.22.5.15Zm-.57,2.52-.22-.14v-.43l.29-.15.22.22.07.36Zm.21-12.09-.14.36.65.21.14.29.36.07.15-.29-.65-.21-.15-.29Zm2.24.43-.08.36-.14.86.94-.14.43-.29.43-.72.58-.14.28-.44.8-.14.93-.65h.36l.72-.93.36-.08.07-.21.94-.79.14-.44.8-.86.07-.36.79-.72.22-.43.07-.65.29-.65-.72-1.37-.44-.36-.28-.57-.8-.36-.36-.51-.28.51H658l-.93.5v.36l-.29.22-.29-.07-.29-.51-.43.29-.14.5.07.58-.43.5.07.36-.14.51-.51.57-.36.94v.36l-.79.72.58.22.14.28-.86,1v.36l-.22.22-.79-.15v.36l.57.65.08.79Zm18,4.46.07-.29.36-.21.14.21-.29.36Z" transform="translate(-427.52 -216.72)"/><path class="cls-1" d="M678.38,238.1l.14.58.65.43v.36l.72.65-.58.65.15.5-.07.36H680l.07.29-.28.72-.8.29.51.57-.43.65.72.58-.65.5.21.36-.72.43-.43.43.94-.14.57.07.08.29-.58.58.07.79-.14.21.36.51-.51.93.08.8.21.5.29-.07.5.14.22-.14.29-.51-.07-.72.57-.07v-.93l.65-.65.22-.58.72-.86v-.29l.5-.29.36-.79.72-.79.07-.79.79-.36.15-.65h.43l.65-1.08.29-.07.86-.72.58-.15.93-.5h.58l.29.14,1-.14.58.57h.43l.15.22,1.22.36.22.72-.51.72v.22l.29-.08.5.22.08.5-.65.58.36.29-.36.5.57.29v.29l-.57.79.07,1.44-.86.43.64.58-.28.57.14.36v.94l-.36.43h-.58l.15,1.3.14.29.43.36-.5.36-.14.28.21.58-.14.65-.87.65-.14.5-1.08.72-.5.07-.8-.57h-.43l-.36-.58-.36.07-.79-.29.14-.5-1-.5-.15-.22.15-.29.43-.36-.58-.5.07-.36-.21-.79.14-.22.58-.22.14-1.08-.5-.14.36-1.51.29-.43v-.51l.57-.07.15-.22-.15-.21-.57-.29,1.08-2.45-.08-.65-.28.08-.15.43-1.08.86-.65,1-.07.5-.57.36-.29.44-.07.57-.51.65-.86.72.14.5-.36.51.29.29-.65.21-.21.87-.36.36-.29-.08-.29.15.29,1-.29.14-.58-.14-.21.21v.94l-.29.21h-.36l-.07.94-.51.36-.21.58-.36.43h-.43l-.22.21v.65l-.5.79v1.08l-.58.72.14.8-.36,2.23-.5.36.07.5-.57.36-.22-.14-.29-.51-.21.15L675,265l.8.36-.08,1.37-.5.14-.29-.5-.36-.07-.21.36-.87.72.22.14.29-.07v.93l.36.44-.29.43-.51-.07-.5-.29-.29.29.65.64v.36l-.94.44-.14.57-1.58.29-.51-.07-.5-.43.14-.44-.21-.21-.58-.07-1.15-1.44.65-.44-.15-.21h-.65l-.21-.29.07-1,.79-.5-.07-.22-.86-.29.28-1.36.22-.44-.29-.5.43-.29L668,263l.07-.72.22-.21-.07-.65.14-.29-.22-.5.08-.29.57-.58-.07-.93.43-1.08-.29-.51.72-.93.15-1.15-.07-.29.43-.58-.43-.57.28-.44.51-.28-.07-.36.57-.8-.21-.36.21-.43-.14-.65.57-.64-.21-.72.14-.29-.36-.65.43-.36.15-.72.65-.72v-.58l.14-.28-.43-.36.14-.51.79-.21-.07-.36h-.29l-.14-.22.22-1.37.43-.79.65-.29-.44-.86.08-.36-.15-.51.65-1,.14-.51,1.08-.86.29.07,1.23-.14.28.36.58.07Zm-3.82,30.1-.21-.22-.08-.65.36-.14.36.29-.14.57Zm1.23-6.12H676v-.29h-.14Zm1.51-10.23.21.08.29-.08-.07-.28h-.43Zm.36.87.07.21.22.15.57.07.36-.29-.65-.21Zm.5-1.15v.28l.22.29.29-.21.43.36.57-.22.15-.22-.51-.36-.14-.28Zm.15-6.34.28-.07.15-.29h-.29Zm5.68,4.46-.14.22-.29.07-.14-.14.36-.29Z" transform="translate(-427.52 -216.72)"/><path class="cls-1" d="M703.79,236.73l.36-.07,1.59.36L706,237l.86.5.65.58v.29l-.58.07-.21.14.07,1.08.79.72.07.36-.5.22-.36.36.21,1.3-.36.43-.07.65-.5.36h-.36l-.29.43-.58,1.58.44.94.43.07.29.5.07.58.57-.07.36.79.15-.22.5.29.79.79v.58l.36.43.51.22.5-.15.22-.21.65,1-.65.64.36.08.57.57h.51l.5-.43.29.14.29.36-.07.51.14.29.5.14.15.22-.15.57.51.15.65-.08.43-.28.07-.22,1.37-.43.5-.29.58-.07,1.08.57-.07.29-1.52.43-.07.58-.86.14-.15.58-.64.58V257l-.36.93.07.29h.86l-.36.65-.29.07-.5-.43v.5l.79.58-.5.57.79.65v.58l.43.29.22-.15v-.36l-.29-.86L716,260l-.21-.43h.43l-.07.36h.43l.86.43.15.5-.07.29-.58-.07-.14.22.43.79.07.57.29.44-.65,1.22.22.5.43.29.07.29-.58.5.08,1.23.28.36-.14.29-.5.14.14.79-.36.36-.5.22-.15.65.07.57-.5.58-.22,1h-.57l-.15.14-.14.79-.5.15-.36.64h-.29l-1.44.87-.07.72-.94.65-.58.21-.43.65-.86-.22-.22-.64-.5.36-.07.5-1.08.36-.29.36-.58-.07-1.15.21-.5-.07-1-.57-.29-.51-.58.29-.07-.58-.5.22-.79-.5H701l-.8-.58.08-.5-.87-.44V274l-.72-.65-.07-.65-.43-.57.21-.72-.28-.72.14-.29-.5-.58.5-.64-.36-.8v-.5l.14-.22.51-.21-.07-.87.86-.93.14-.51,1.66-.07v-.29l-.36-.43,1.22-.5.08-.29h.36l.21-.14.07-.29,1.23-.87.07-.5.86-.36.15-.65,1.15-.65v-.72l-.72-.86-.14-.65-.58-.21-.07-.65-.65-.87.14-.57-.36-1.15h-.36l-.57-.22-.94-.65-.14-.65-.72-.86v-.43l-.79-.79-.08-.36.15-.58-.15-.29-.79.36-.57-.93-.51-.29v-.51l-.93-2,.07-.43-.15-.22V244l-.14-.22.07-1.22.29-.8.22-1.22.28-.36.08-.94.57-.5L699,238l.43-.22.43-.5.51-.29,2.37-.43.51-.36.21.07ZM707,261.86l-.28.07-.51.29h-.36l-.5,1h-.65l-.94,1-.5.36-.65.79-.72.5-.21.51-.22.07-1,.94-.07.57-.22.43.08.29-.22.58.14.43-.21.86.29.58-.22.22.22.14.07.36,1.22,1.94,2.31.94,1.15.14.65-.5.57-.07.58-.65v-.36l.65-.36.14-.22-.14-.57.79-.65-.07-.5.64-.87.15-.57.57-.58-.28-1.22.43-.8-.43-.72-.15-1.22-.43-.5-.07-.29.21-.79-.57-.15-.36-.29.21-.57Zm-2.3-19.51-.14-.29.07-.5.36-.51v-.57l.21-.72-1.08-1-.43-.22-.65.08-.5.21-.72.87-.36,1.8-.29.43.51.36.28,1.37h.36l.94.57.79-.79Zm7.06,31-.15.22.15.21.5.22v-.43ZM713,261.5l.07.22h.29v-.29Zm.29,2-.07.29.5.14.43-.36h.58l-.22-.22-.57-.07Zm.72-.87h.29l1.29-.28v-.22l-.57-.29-.8.29L714,262l-.07-.29h-.22l-.07.29Zm2,.58-.21.14-.22.08-.07.28,1.08-.14.14-.22-.28-.14-.36-.79-.29.07Zm5.69-11.88-.21.22-.72,1-1.08.51-.65.86-.29-.14-.14-.51-.29-.14-.58.07-.07-.29.22-.5.43-.36.5.22.22-.15v-.5l.57-.22.15.65.5-.14v-1.16l.51-.07Zm6.77-6.41.22.07,1,1-.14.36-.43.29-.36.72-1.23,1.08h-.64l-.51.22-.65.79-1.15.43-.93.65-.29.5-1,.36-.58-.07.15-.65-.43-.5.14-.22.43-.21,1.23-1.08.79-.29.79-.65.86.14.15-.21-.22-.43V247l.29-.22.58.07.5.29.14-.29-.36-.43.08-.29.57-.21.58.07.43-.36Z" transform="translate(-427.52 -216.72)"/></svg>